<mxfile host="app.diagrams.net" modified="2022-12-25T18:57:46.805Z" agent="5.0 (Windows)" etag="tn6CeeA6DPlShBsdm7J-" version="20.7.4" type="github">
  <diagram id="J3GBve0ONBFmpF_-j44M" name="Page-1">
    <mxGraphModel dx="7173" dy="4353" grid="1" gridSize="10" guides="1" tooltips="1" connect="1" arrows="1" fold="1" page="1" pageScale="1" pageWidth="1100" pageHeight="850" math="0" shadow="0">
      <root>
        <mxCell id="0" />
        <mxCell id="1" parent="0" />
        <mxCell id="HGoTmEdLcFwjstujymGU-181" value="" style="ellipse;whiteSpace=wrap;html=1;" parent="1" vertex="1">
          <mxGeometry x="-2020" y="-350" width="170" height="100" as="geometry" />
        </mxCell>
        <mxCell id="wojboqunz96ooFiyqucH-1" value="" style="group" parent="1" connectable="0" vertex="1">
          <mxGeometry x="-970" y="-1780" width="3580" height="2232.316923076923" as="geometry" />
        </mxCell>
        <mxCell id="HGoTmEdLcFwjstujymGU-223" value="&lt;font style=&quot;font-size: 24px;&quot;&gt;Collection and delivery locations&lt;/font&gt;" style="whiteSpace=wrap;html=1;align=center;" parent="wojboqunz96ooFiyqucH-1" vertex="1">
          <mxGeometry x="-133.42" y="1516.95" width="270" height="111.79" as="geometry" />
        </mxCell>
        <mxCell id="wojboqunz96ooFiyqucH-2" value="&lt;font style=&quot;font-size: 24px;&quot;&gt;User&lt;/font&gt;" style="whiteSpace=wrap;html=1;align=center;" parent="wojboqunz96ooFiyqucH-1" vertex="1">
          <mxGeometry x="817.3207547169809" y="377.9487179487179" width="175.62264150943392" height="103.07692307692308" as="geometry" />
        </mxCell>
        <mxCell id="wojboqunz96ooFiyqucH-3" value="&lt;font style=&quot;font-size: 24px;&quot;&gt;Accounts Executive&lt;/font&gt;" style="whiteSpace=wrap;html=1;align=center;" parent="wojboqunz96ooFiyqucH-1" vertex="1">
          <mxGeometry x="465.0903773584905" y="1193.9710256410256" width="243.1698113207547" height="85.89743589743588" as="geometry" />
        </mxCell>
        <mxCell id="wojboqunz96ooFiyqucH-4" value="&lt;font style=&quot;font-size: 24px;&quot;&gt;Data Entry operators&lt;/font&gt;" style="whiteSpace=wrap;html=1;align=center;" parent="wojboqunz96ooFiyqucH-1" vertex="1">
          <mxGeometry x="1026.7177358490565" y="857.1617948717948" width="243.1698113207547" height="85.89743589743588" as="geometry" />
        </mxCell>
        <mxCell id="wojboqunz96ooFiyqucH-5" value="&lt;font style=&quot;font-size: 24px;&quot;&gt;Admin&lt;/font&gt;" style="whiteSpace=wrap;html=1;align=center;" parent="wojboqunz96ooFiyqucH-1" vertex="1">
          <mxGeometry x="351.24528301886784" y="898.4871794871794" width="243.1698113207547" height="96.20512820512819" as="geometry" />
        </mxCell>
        <mxCell id="wojboqunz96ooFiyqucH-7" value="EmployeeID" style="ellipse;whiteSpace=wrap;html=1;align=center;fontStyle=4;" parent="wojboqunz96ooFiyqucH-1" vertex="1">
          <mxGeometry x="634.943396226415" y="395.1282051282051" width="135.0943396226415" height="68.7179487179487" as="geometry" />
        </mxCell>
        <mxCell id="wojboqunz96ooFiyqucH-8" value="Username" style="ellipse;whiteSpace=wrap;html=1;align=center;" parent="wojboqunz96ooFiyqucH-1" vertex="1">
          <mxGeometry x="499.8490566037735" y="309.23076923076917" width="135.0943396226415" height="68.7179487179487" as="geometry" />
        </mxCell>
        <mxCell id="wojboqunz96ooFiyqucH-9" value="Email" style="ellipse;whiteSpace=wrap;html=1;align=center;" parent="wojboqunz96ooFiyqucH-1" vertex="1">
          <mxGeometry x="621.4339622641508" y="34.35897435897435" width="135.0943396226415" height="68.7179487179487" as="geometry" />
        </mxCell>
        <mxCell id="wojboqunz96ooFiyqucH-10" value="Password" style="ellipse;whiteSpace=wrap;html=1;align=center;" parent="wojboqunz96ooFiyqucH-1" vertex="1">
          <mxGeometry x="580.9056603773585" y="171.79487179487177" width="135.0943396226415" height="68.7179487179487" as="geometry" />
        </mxCell>
        <mxCell id="wojboqunz96ooFiyqucH-14" value="Collected Vehicle" style="ellipse;whiteSpace=wrap;html=1;align=center;" parent="wojboqunz96ooFiyqucH-1" vertex="1">
          <mxGeometry x="2230.0030188679243" y="908.3346153846154" width="135.0943396226415" height="68.7179487179487" as="geometry" />
        </mxCell>
        <mxCell id="wojboqunz96ooFiyqucH-31" value="&lt;font style=&quot;font-size: 16px&quot;&gt;d&lt;/font&gt;" style="ellipse;whiteSpace=wrap;html=1;aspect=fixed;" parent="wojboqunz96ooFiyqucH-1" vertex="1">
          <mxGeometry x="878.1132075471697" y="635.6410256410256" width="27.390532628948158" height="27.390532628948158" as="geometry" />
        </mxCell>
        <mxCell id="wojboqunz96ooFiyqucH-32" value="" style="shape=link;html=1;rounded=0;fontSize=16;exitX=0.5;exitY=1;exitDx=0;exitDy=0;entryX=0.5;entryY=0;entryDx=0;entryDy=0;" parent="wojboqunz96ooFiyqucH-1" source="wojboqunz96ooFiyqucH-2" target="wojboqunz96ooFiyqucH-31" edge="1">
          <mxGeometry relative="1" as="geometry">
            <mxPoint x="648.4528301886792" y="721.5384615384614" as="sourcePoint" />
            <mxPoint x="864.6037735849055" y="721.5384615384614" as="targetPoint" />
          </mxGeometry>
        </mxCell>
        <mxCell id="wojboqunz96ooFiyqucH-33" value="" style="resizable=0;html=1;align=right;verticalAlign=bottom;fontSize=16;" parent="wojboqunz96ooFiyqucH-32" connectable="0" vertex="1">
          <mxGeometry x="1" relative="1" as="geometry" />
        </mxCell>
        <mxCell id="wojboqunz96ooFiyqucH-34" value="" style="endArrow=none;html=1;rounded=0;fontSize=16;entryX=0;entryY=1;entryDx=0;entryDy=0;exitX=0.5;exitY=0;exitDx=0;exitDy=0;" parent="wojboqunz96ooFiyqucH-1" source="wojboqunz96ooFiyqucH-3" target="wojboqunz96ooFiyqucH-31" edge="1">
          <mxGeometry relative="1" as="geometry">
            <mxPoint x="621.4339622641508" y="755.8974358974358" as="sourcePoint" />
            <mxPoint x="837.5849056603771" y="755.8974358974358" as="targetPoint" />
          </mxGeometry>
        </mxCell>
        <mxCell id="wojboqunz96ooFiyqucH-35" value="U" style="edgeLabel;html=1;align=center;verticalAlign=middle;resizable=0;points=[];fontSize=16;rotation=65;labelBackgroundColor=none;" parent="wojboqunz96ooFiyqucH-34" connectable="0" vertex="1">
          <mxGeometry x="0.1628" y="2" relative="1" as="geometry">
            <mxPoint y="2" as="offset" />
          </mxGeometry>
        </mxCell>
        <mxCell id="wojboqunz96ooFiyqucH-36" value="" style="endArrow=none;html=1;rounded=0;fontSize=16;exitX=1;exitY=0.5;exitDx=0;exitDy=0;entryX=0;entryY=0.25;entryDx=0;entryDy=0;" parent="wojboqunz96ooFiyqucH-1" source="wojboqunz96ooFiyqucH-7" target="wojboqunz96ooFiyqucH-2" edge="1">
          <mxGeometry relative="1" as="geometry">
            <mxPoint x="466.1295094339622" y="704.3589743589744" as="sourcePoint" />
            <mxPoint x="810.5660377358487" y="429.4871794871794" as="targetPoint" />
          </mxGeometry>
        </mxCell>
        <mxCell id="wojboqunz96ooFiyqucH-37" value="" style="endArrow=none;html=1;rounded=0;fontSize=16;exitX=1;exitY=1;exitDx=0;exitDy=0;entryX=0;entryY=0;entryDx=0;entryDy=0;" parent="wojboqunz96ooFiyqucH-1" source="wojboqunz96ooFiyqucH-8" target="wojboqunz96ooFiyqucH-2" edge="1">
          <mxGeometry relative="1" as="geometry">
            <mxPoint x="688.9811320754716" y="377.9487179487179" as="sourcePoint" />
            <mxPoint x="830.8301886792451" y="420.8974358974358" as="targetPoint" />
          </mxGeometry>
        </mxCell>
        <mxCell id="wojboqunz96ooFiyqucH-38" value="" style="endArrow=none;html=1;rounded=0;fontSize=16;exitX=0.5;exitY=1;exitDx=0;exitDy=0;entryX=0.346;entryY=0;entryDx=0;entryDy=0;entryPerimeter=0;" parent="wojboqunz96ooFiyqucH-1" source="wojboqunz96ooFiyqucH-10" target="wojboqunz96ooFiyqucH-2" edge="1">
          <mxGeometry relative="1" as="geometry">
            <mxPoint x="750.0446021359459" y="264.91414535097226" as="sourcePoint" />
            <mxPoint x="830.8301886792451" y="395.1282051282051" as="targetPoint" />
          </mxGeometry>
        </mxCell>
        <mxCell id="wojboqunz96ooFiyqucH-39" value="" style="endArrow=none;html=1;rounded=0;fontSize=16;exitX=0.5;exitY=1;exitDx=0;exitDy=0;entryX=0.5;entryY=0;entryDx=0;entryDy=0;" parent="wojboqunz96ooFiyqucH-1" source="wojboqunz96ooFiyqucH-9" target="wojboqunz96ooFiyqucH-2" edge="1">
          <mxGeometry relative="1" as="geometry">
            <mxPoint x="898.3773584905659" y="257.6923076923077" as="sourcePoint" />
            <mxPoint x="918.6415094339621" y="395.1282051282051" as="targetPoint" />
          </mxGeometry>
        </mxCell>
        <mxCell id="wojboqunz96ooFiyqucH-41" value="FirstName" style="ellipse;whiteSpace=wrap;html=1;align=center;" parent="wojboqunz96ooFiyqucH-1" vertex="1">
          <mxGeometry x="513.3584905660376" y="515.3846153846154" width="135.0943396226415" height="68.7179487179487" as="geometry" />
        </mxCell>
        <mxCell id="wojboqunz96ooFiyqucH-42" value="LastName" style="ellipse;whiteSpace=wrap;html=1;align=center;" parent="wojboqunz96ooFiyqucH-1" vertex="1">
          <mxGeometry x="594.4150943396226" y="601.2820512820513" width="135.0943396226415" height="68.7179487179487" as="geometry" />
        </mxCell>
        <mxCell id="wojboqunz96ooFiyqucH-65" style="edgeStyle=orthogonalEdgeStyle;rounded=0;orthogonalLoop=1;jettySize=auto;html=1;exitX=0.5;exitY=1;exitDx=0;exitDy=0;" parent="wojboqunz96ooFiyqucH-1" edge="1">
          <mxGeometry relative="1" as="geometry">
            <mxPoint x="243.1698113207547" y="1757.4615384615383" as="sourcePoint" />
            <mxPoint x="243.1698113207547" y="1757.4615384615383" as="targetPoint" />
          </mxGeometry>
        </mxCell>
        <mxCell id="wojboqunz96ooFiyqucH-66" value="" style="endArrow=none;html=1;rounded=0;fontSize=16;entryX=1;entryY=1;entryDx=0;entryDy=0;exitX=0.409;exitY=-0.008;exitDx=0;exitDy=0;exitPerimeter=0;" parent="wojboqunz96ooFiyqucH-1" source="wojboqunz96ooFiyqucH-4" target="wojboqunz96ooFiyqucH-31" edge="1">
          <mxGeometry relative="1" as="geometry">
            <mxPoint x="162.1132075471698" y="824.6153846153846" as="sourcePoint" />
            <mxPoint x="891.5145660377353" y="703.3969230769231" as="targetPoint" />
          </mxGeometry>
        </mxCell>
        <mxCell id="wojboqunz96ooFiyqucH-67" value="U" style="edgeLabel;html=1;align=center;verticalAlign=middle;resizable=0;points=[];fontSize=16;rotation=-15;labelBackgroundColor=none;" parent="wojboqunz96ooFiyqucH-66" connectable="0" vertex="1">
          <mxGeometry x="0.1628" y="2" relative="1" as="geometry">
            <mxPoint y="2" as="offset" />
          </mxGeometry>
        </mxCell>
        <mxCell id="wojboqunz96ooFiyqucH-68" value="&lt;font style=&quot;font-size: 24px;&quot;&gt;Item Collection&lt;br&gt;&lt;/font&gt;" style="whiteSpace=wrap;html=1;align=center;" parent="wojboqunz96ooFiyqucH-1" vertex="1">
          <mxGeometry x="1942.3771698113205" y="857.1571794871794" width="175.62264150943392" height="103.07692307692308" as="geometry" />
        </mxCell>
        <mxCell id="wojboqunz96ooFiyqucH-69" value="" style="endArrow=none;html=1;rounded=0;fontSize=16;entryX=0;entryY=0.5;entryDx=0;entryDy=0;exitX=0.5;exitY=0;exitDx=0;exitDy=0;" parent="wojboqunz96ooFiyqucH-1" source="wojboqunz96ooFiyqucH-5" target="wojboqunz96ooFiyqucH-31" edge="1">
          <mxGeometry relative="1" as="geometry">
            <mxPoint x="175.62264150943392" y="841.7948717948716" as="sourcePoint" />
            <mxPoint x="905.0239999999995" y="720.5764102564102" as="targetPoint" />
          </mxGeometry>
        </mxCell>
        <mxCell id="wojboqunz96ooFiyqucH-70" value="U" style="edgeLabel;html=1;align=center;verticalAlign=middle;resizable=0;points=[];fontSize=16;rotation=60;labelBackgroundColor=none;" parent="wojboqunz96ooFiyqucH-69" connectable="0" vertex="1">
          <mxGeometry x="0.1628" y="2" relative="1" as="geometry">
            <mxPoint x="1" y="2" as="offset" />
          </mxGeometry>
        </mxCell>
        <mxCell id="wojboqunz96ooFiyqucH-71" value="&lt;u&gt;Order_NO&lt;/u&gt;" style="ellipse;whiteSpace=wrap;html=1;align=center;" parent="wojboqunz96ooFiyqucH-1" vertex="1">
          <mxGeometry x="1759.9998113207544" y="987.7041025641026" width="135.0943396226415" height="68.7179487179487" as="geometry" />
        </mxCell>
        <mxCell id="wojboqunz96ooFiyqucH-72" value="" style="endArrow=none;html=1;rounded=0;fontSize=16;exitX=0;exitY=0.5;exitDx=0;exitDy=0;entryX=1;entryY=0.25;entryDx=0;entryDy=0;" parent="wojboqunz96ooFiyqucH-1" source="wojboqunz96ooFiyqucH-86" target="wojboqunz96ooFiyqucH-4" edge="1">
          <mxGeometry relative="1" as="geometry">
            <mxPoint x="1432" y="979.2307692307692" as="sourcePoint" />
            <mxPoint x="1006.4528301886786" y="395.1282051282051" as="targetPoint" />
          </mxGeometry>
        </mxCell>
        <mxCell id="wojboqunz96ooFiyqucH-74" value="M" style="text;html=1;align=center;verticalAlign=middle;resizable=0;points=[];autosize=1;strokeColor=none;fillColor=none;" parent="wojboqunz96ooFiyqucH-1" vertex="1">
          <mxGeometry x="980.0028301886789" y="343.5907692307692" width="30" height="20" as="geometry" />
        </mxCell>
        <mxCell id="wojboqunz96ooFiyqucH-82" value="StartTime" style="ellipse;whiteSpace=wrap;html=1;align=center;" parent="wojboqunz96ooFiyqucH-1" vertex="1">
          <mxGeometry x="1874.83" y="663.0289743589743" width="135.0943396226415" height="68.7179487179487" as="geometry" />
        </mxCell>
        <mxCell id="wojboqunz96ooFiyqucH-83" value="EndTime" style="ellipse;whiteSpace=wrap;html=1;align=center;" parent="wojboqunz96ooFiyqucH-1" vertex="1">
          <mxGeometry x="2036.9432075471698" y="714.5674358974358" width="135.0943396226415" height="68.7179487179487" as="geometry" />
        </mxCell>
        <mxCell id="wojboqunz96ooFiyqucH-84" value="Customer" style="ellipse;whiteSpace=wrap;html=1;align=center;" parent="wojboqunz96ooFiyqucH-1" vertex="1">
          <mxGeometry x="1905.9016981132072" y="1054.7041025641022" width="141.84905660377353" height="73.87179487179486" as="geometry" />
        </mxCell>
        <mxCell id="wojboqunz96ooFiyqucH-85" value="Wasing Plant Location" style="ellipse;whiteSpace=wrap;html=1;align=center;" parent="wojboqunz96ooFiyqucH-1" vertex="1">
          <mxGeometry x="2077.4715094339617" y="1037.5246153846153" width="135.0943396226415" height="68.7179487179487" as="geometry" />
        </mxCell>
        <mxCell id="wojboqunz96ooFiyqucH-86" value="&lt;font style=&quot;font-size: 18px;&quot;&gt;ADD&lt;/font&gt;" style="shape=rhombus;perimeter=rhombusPerimeter;whiteSpace=wrap;html=1;align=center;" parent="wojboqunz96ooFiyqucH-1" vertex="1">
          <mxGeometry x="1480.0030188679248" y="852.003846153846" width="162.1132075471698" height="103.07692307692308" as="geometry" />
        </mxCell>
        <mxCell id="wojboqunz96ooFiyqucH-88" value="" style="endArrow=none;html=1;rounded=0;fontSize=16;exitX=0.392;exitY=0.029;exitDx=0;exitDy=0;entryX=0.5;entryY=1;entryDx=0;entryDy=0;exitPerimeter=0;" parent="wojboqunz96ooFiyqucH-1" source="wojboqunz96ooFiyqucH-68" target="wojboqunz96ooFiyqucH-82" edge="1">
          <mxGeometry relative="1" as="geometry">
            <mxPoint x="1888.3394339622644" y="903.5417948717948" as="sourcePoint" />
            <mxPoint x="1739.7356603773583" y="697.3879487179485" as="targetPoint" />
          </mxGeometry>
        </mxCell>
        <mxCell id="wojboqunz96ooFiyqucH-89" value="" style="endArrow=none;html=1;rounded=0;fontSize=16;exitX=0.75;exitY=0;exitDx=0;exitDy=0;entryX=0.5;entryY=1;entryDx=0;entryDy=0;" parent="wojboqunz96ooFiyqucH-1" source="wojboqunz96ooFiyqucH-68" target="wojboqunz96ooFiyqucH-83" edge="1">
          <mxGeometry relative="1" as="geometry">
            <mxPoint x="1901.8488679245281" y="920.7212820512818" as="sourcePoint" />
            <mxPoint x="1753.2450943396223" y="714.5674358974358" as="targetPoint" />
          </mxGeometry>
        </mxCell>
        <mxCell id="wojboqunz96ooFiyqucH-90" value="" style="endArrow=none;html=1;rounded=0;fontSize=16;exitX=0.5;exitY=1;exitDx=0;exitDy=0;entryX=0.5;entryY=0;entryDx=0;entryDy=0;" parent="wojboqunz96ooFiyqucH-1" source="wojboqunz96ooFiyqucH-68" target="wojboqunz96ooFiyqucH-85" edge="1">
          <mxGeometry relative="1" as="geometry">
            <mxPoint x="1888.3394339622644" y="903.5417948717948" as="sourcePoint" />
            <mxPoint x="1739.7356603773583" y="697.3879487179485" as="targetPoint" />
          </mxGeometry>
        </mxCell>
        <mxCell id="wojboqunz96ooFiyqucH-91" value="" style="endArrow=none;html=1;rounded=0;fontSize=16;exitX=0.25;exitY=1;exitDx=0;exitDy=0;entryX=0.5;entryY=0;entryDx=0;entryDy=0;" parent="wojboqunz96ooFiyqucH-1" source="wojboqunz96ooFiyqucH-68" target="wojboqunz96ooFiyqucH-84" edge="1">
          <mxGeometry relative="1" as="geometry">
            <mxPoint x="1976.1507547169806" y="955.0802564102563" as="sourcePoint" />
            <mxPoint x="2077.471509433963" y="1114.8494871794871" as="targetPoint" />
          </mxGeometry>
        </mxCell>
        <mxCell id="wojboqunz96ooFiyqucH-92" value="" style="endArrow=none;html=1;rounded=0;fontSize=16;exitX=0;exitY=0.75;exitDx=0;exitDy=0;entryX=0.5;entryY=0;entryDx=0;entryDy=0;" parent="wojboqunz96ooFiyqucH-1" source="wojboqunz96ooFiyqucH-68" target="wojboqunz96ooFiyqucH-71" edge="1">
          <mxGeometry relative="1" as="geometry">
            <mxPoint x="1932.2450943396223" y="955.0802564102563" as="sourcePoint" />
            <mxPoint x="1915.3583018867919" y="1125.1571794871795" as="targetPoint" />
          </mxGeometry>
        </mxCell>
        <mxCell id="wojboqunz96ooFiyqucH-93" value="M" style="text;html=1;align=center;verticalAlign=middle;resizable=0;points=[];autosize=1;strokeColor=none;fillColor=none;" parent="wojboqunz96ooFiyqucH-1" vertex="1">
          <mxGeometry x="1905.9058490566035" y="883.5433333333333" width="30" height="20" as="geometry" />
        </mxCell>
        <mxCell id="wojboqunz96ooFiyqucH-117" value="Name" style="ellipse;whiteSpace=wrap;html=1;align=center;" parent="wojboqunz96ooFiyqucH-1" vertex="1">
          <mxGeometry x="682.2264150943396" y="515.3846153846154" width="135.0943396226415" height="68.7179487179487" as="geometry" />
        </mxCell>
        <mxCell id="wojboqunz96ooFiyqucH-118" value="" style="endArrow=none;html=1;rounded=0;fontSize=16;exitX=1;exitY=0.5;exitDx=0;exitDy=0;entryX=0;entryY=0.5;entryDx=0;entryDy=0;" parent="wojboqunz96ooFiyqucH-1" source="wojboqunz96ooFiyqucH-41" target="wojboqunz96ooFiyqucH-117" edge="1">
          <mxGeometry relative="1" as="geometry">
            <mxPoint x="783.5471698113208" y="446.6666666666667" as="sourcePoint" />
            <mxPoint x="830.8301886792451" y="420.8974358974358" as="targetPoint" />
          </mxGeometry>
        </mxCell>
        <mxCell id="wojboqunz96ooFiyqucH-119" value="" style="endArrow=none;html=1;rounded=0;fontSize=16;exitX=1;exitY=0;exitDx=0;exitDy=0;entryX=0.5;entryY=1;entryDx=0;entryDy=0;" parent="wojboqunz96ooFiyqucH-1" source="wojboqunz96ooFiyqucH-42" target="wojboqunz96ooFiyqucH-117" edge="1">
          <mxGeometry relative="1" as="geometry">
            <mxPoint x="621.4339622641508" y="584.102564102564" as="sourcePoint" />
            <mxPoint x="688.9811320754716" y="566.9230769230769" as="targetPoint" />
          </mxGeometry>
        </mxCell>
        <mxCell id="wojboqunz96ooFiyqucH-120" value="" style="endArrow=none;html=1;rounded=0;fontSize=16;exitX=1;exitY=0;exitDx=0;exitDy=0;entryX=0;entryY=1;entryDx=0;entryDy=0;" parent="wojboqunz96ooFiyqucH-1" source="wojboqunz96ooFiyqucH-117" target="wojboqunz96ooFiyqucH-2" edge="1">
          <mxGeometry relative="1" as="geometry">
            <mxPoint x="621.4339622641508" y="584.102564102564" as="sourcePoint" />
            <mxPoint x="688.9811320754716" y="566.9230769230769" as="targetPoint" />
          </mxGeometry>
        </mxCell>
        <mxCell id="wojboqunz96ooFiyqucH-121" value="Address" style="ellipse;whiteSpace=wrap;html=1;align=center;" parent="wojboqunz96ooFiyqucH-1" vertex="1">
          <mxGeometry x="1080.754716981132" y="429.4871794871794" width="135.0943396226415" height="68.7179487179487" as="geometry" />
        </mxCell>
        <mxCell id="wojboqunz96ooFiyqucH-122" value="" style="endArrow=none;html=1;rounded=0;fontSize=16;exitX=0;exitY=0.5;exitDx=0;exitDy=0;entryX=1;entryY=0.75;entryDx=0;entryDy=0;" parent="wojboqunz96ooFiyqucH-1" source="wojboqunz96ooFiyqucH-121" target="wojboqunz96ooFiyqucH-2" edge="1">
          <mxGeometry relative="1" as="geometry">
            <mxPoint x="878.1132075471697" y="240.51282051282047" as="sourcePoint" />
            <mxPoint x="918.6415094339621" y="395.1282051282051" as="targetPoint" />
          </mxGeometry>
        </mxCell>
        <mxCell id="wojboqunz96ooFiyqucH-128" value="1" style="text;html=1;align=center;verticalAlign=middle;resizable=0;points=[];autosize=1;strokeColor=none;fillColor=none;" parent="wojboqunz96ooFiyqucH-1" vertex="1">
          <mxGeometry x="529.9990566037735" y="1279.8712820512822" width="20" height="20" as="geometry" />
        </mxCell>
        <mxCell id="wojboqunz96ooFiyqucH-130" value="Gender" style="ellipse;whiteSpace=wrap;html=1;align=center;" parent="wojboqunz96ooFiyqucH-1" vertex="1">
          <mxGeometry x="770.0377358490565" width="135.0943396226415" height="68.7179487179487" as="geometry" />
        </mxCell>
        <mxCell id="wojboqunz96ooFiyqucH-131" value="" style="endArrow=none;html=1;rounded=0;fontSize=16;exitX=0.5;exitY=1;exitDx=0;exitDy=0;entryX=0.617;entryY=-0.027;entryDx=0;entryDy=0;entryPerimeter=0;" parent="wojboqunz96ooFiyqucH-1" source="wojboqunz96ooFiyqucH-130" target="wojboqunz96ooFiyqucH-2" edge="1">
          <mxGeometry relative="1" as="geometry">
            <mxPoint x="783.5471698113208" y="120.25641025641023" as="sourcePoint" />
            <mxPoint x="918.6415094339621" y="395.1282051282051" as="targetPoint" />
          </mxGeometry>
        </mxCell>
        <mxCell id="wojboqunz96ooFiyqucH-133" value="" style="endArrow=none;html=1;rounded=0;fontSize=16;exitX=1;exitY=0.5;exitDx=0;exitDy=0;entryX=0.5;entryY=1;entryDx=0;entryDy=0;" parent="wojboqunz96ooFiyqucH-1" source="7mZElqCdtzCGHnQOhd71-1" target="wojboqunz96ooFiyqucH-5" edge="1">
          <mxGeometry relative="1" as="geometry">
            <mxPoint x="175.62264150943406" y="1133.8461538461536" as="sourcePoint" />
            <mxPoint x="851.0943396226417" y="395.1282051282051" as="targetPoint" />
            <Array as="points">
              <mxPoint x="473" y="1080" />
            </Array>
          </mxGeometry>
        </mxCell>
        <mxCell id="wojboqunz96ooFiyqucH-137" value="PhoneNumber" style="ellipse;whiteSpace=wrap;html=1;align=center;" parent="wojboqunz96ooFiyqucH-1" vertex="1">
          <mxGeometry x="945.6603773584905" width="135.0943396226415" height="68.7179487179487" as="geometry" />
        </mxCell>
        <mxCell id="wojboqunz96ooFiyqucH-138" value="" style="endArrow=none;html=1;rounded=0;fontSize=16;exitX=0.5;exitY=1;exitDx=0;exitDy=0;" parent="wojboqunz96ooFiyqucH-1" source="wojboqunz96ooFiyqucH-137" edge="1">
          <mxGeometry relative="1" as="geometry">
            <mxPoint x="851.0943396226417" y="85.89743589743625" as="sourcePoint" />
            <mxPoint x="945.6603773584905" y="377.9487179487179" as="targetPoint" />
          </mxGeometry>
        </mxCell>
        <mxCell id="wojboqunz96ooFiyqucH-139" value="City" style="ellipse;whiteSpace=wrap;html=1;align=center;" parent="wojboqunz96ooFiyqucH-1" vertex="1">
          <mxGeometry x="1229.3584905660377" y="515.3846153846154" width="135.0943396226415" height="68.7179487179487" as="geometry" />
        </mxCell>
        <mxCell id="wojboqunz96ooFiyqucH-140" value="AddressLine2" style="ellipse;whiteSpace=wrap;html=1;align=center;" parent="wojboqunz96ooFiyqucH-1" vertex="1">
          <mxGeometry x="1276.641509433962" y="412.3076923076923" width="135.0943396226415" height="68.7179487179487" as="geometry" />
        </mxCell>
        <mxCell id="wojboqunz96ooFiyqucH-141" value="AddressLine1" style="ellipse;whiteSpace=wrap;html=1;align=center;" parent="wojboqunz96ooFiyqucH-1" vertex="1">
          <mxGeometry x="1188.830188679245" y="326.41025641025635" width="135.0943396226415" height="68.7179487179487" as="geometry" />
        </mxCell>
        <mxCell id="wojboqunz96ooFiyqucH-142" value="" style="endArrow=none;html=1;rounded=0;fontSize=16;exitX=0.5;exitY=1;exitDx=0;exitDy=0;entryX=1;entryY=1;entryDx=0;entryDy=0;" parent="wojboqunz96ooFiyqucH-1" target="wojboqunz96ooFiyqucH-121" edge="1">
          <mxGeometry relative="1" as="geometry">
            <mxPoint x="1229.3584905660377" y="549.7435897435896" as="sourcePoint" />
            <mxPoint x="1161.811320754717" y="858.9743589743588" as="targetPoint" />
          </mxGeometry>
        </mxCell>
        <mxCell id="wojboqunz96ooFiyqucH-143" value="" style="endArrow=none;html=1;rounded=0;fontSize=16;exitX=0;exitY=0.5;exitDx=0;exitDy=0;entryX=1;entryY=0.5;entryDx=0;entryDy=0;" parent="wojboqunz96ooFiyqucH-1" source="wojboqunz96ooFiyqucH-140" target="wojboqunz96ooFiyqucH-121" edge="1">
          <mxGeometry relative="1" as="geometry">
            <mxPoint x="1283.3962264150944" y="429.4871794871794" as="sourcePoint" />
            <mxPoint x="1215.8490566037733" y="738.7179487179485" as="targetPoint" />
          </mxGeometry>
        </mxCell>
        <mxCell id="wojboqunz96ooFiyqucH-144" value="" style="endArrow=none;html=1;rounded=0;fontSize=16;exitX=0.5;exitY=1;exitDx=0;exitDy=0;entryX=0.5;entryY=0;entryDx=0;entryDy=0;" parent="wojboqunz96ooFiyqucH-1" target="wojboqunz96ooFiyqucH-121" edge="1">
          <mxGeometry relative="1" as="geometry">
            <mxPoint x="1202.3396226415093" y="377.9487179487179" as="sourcePoint" />
            <mxPoint x="1134.7924528301883" y="687.1794871794871" as="targetPoint" />
          </mxGeometry>
        </mxCell>
        <mxCell id="wojboqunz96ooFiyqucH-145" value="District" style="ellipse;whiteSpace=wrap;html=1;align=center;" parent="wojboqunz96ooFiyqucH-1" vertex="1">
          <mxGeometry x="1107.7735849056603" y="584.102564102564" width="135.0943396226415" height="68.7179487179487" as="geometry" />
        </mxCell>
        <mxCell id="wojboqunz96ooFiyqucH-146" value="" style="endArrow=none;html=1;rounded=0;fontSize=16;exitX=0.5;exitY=0;exitDx=0;exitDy=0;" parent="wojboqunz96ooFiyqucH-1" source="wojboqunz96ooFiyqucH-145" edge="1">
          <mxGeometry relative="1" as="geometry">
            <mxPoint x="1242.8679245283015" y="566.9230769230769" as="sourcePoint" />
            <mxPoint x="1148.301886792453" y="505.0769230769231" as="targetPoint" />
          </mxGeometry>
        </mxCell>
        <mxCell id="7mZElqCdtzCGHnQOhd71-1" value="&lt;font style=&quot;font-size: 18px;&quot;&gt;ADD&lt;/font&gt;" style="shape=rhombus;perimeter=rhombusPerimeter;whiteSpace=wrap;html=1;align=center;" parent="wojboqunz96ooFiyqucH-1" vertex="1">
          <mxGeometry x="0.0030188679247658" y="1030.773846153846" width="162.1132075471698" height="103.07692307692308" as="geometry" />
        </mxCell>
        <mxCell id="HGoTmEdLcFwjstujymGU-8" value="Location Incharge Person" style="ellipse;whiteSpace=wrap;html=1;align=center;" parent="wojboqunz96ooFiyqucH-1" vertex="1">
          <mxGeometry x="-39.99603773584931" y="1739.9989743589745" width="135.0943396226415" height="68.7179487179487" as="geometry" />
        </mxCell>
        <mxCell id="HGoTmEdLcFwjstujymGU-167" value="AddressLine2" style="ellipse;whiteSpace=wrap;html=1;align=center;" parent="wojboqunz96ooFiyqucH-1" vertex="1">
          <mxGeometry x="-165.08849056603822" y="2059.3576923076926" width="135.0943396226415" height="68.7179487179487" as="geometry" />
        </mxCell>
        <mxCell id="HGoTmEdLcFwjstujymGU-168" value="AddressLine1" style="ellipse;whiteSpace=wrap;html=1;align=center;" parent="wojboqunz96ooFiyqucH-1" vertex="1">
          <mxGeometry x="-55.08981132075496" y="1980.6402564102564" width="135.0943396226415" height="68.7179487179487" as="geometry" />
        </mxCell>
        <mxCell id="HGoTmEdLcFwjstujymGU-173" value="Location Type" style="ellipse;whiteSpace=wrap;html=1;align=center;" parent="wojboqunz96ooFiyqucH-1" vertex="1">
          <mxGeometry x="162.11471698113215" y="1786.6671794871795" width="135.0943396226415" height="68.7179487179487" as="geometry" />
        </mxCell>
        <mxCell id="HGoTmEdLcFwjstujymGU-174" value="Collection" style="ellipse;whiteSpace=wrap;html=1;align=center;" parent="wojboqunz96ooFiyqucH-1" vertex="1">
          <mxGeometry x="300.0035849056603" y="1860.002564102564" width="135.0943396226415" height="68.7179487179487" as="geometry" />
        </mxCell>
        <mxCell id="HGoTmEdLcFwjstujymGU-175" value="Dilivery" style="ellipse;whiteSpace=wrap;html=1;align=center;direction=west;points=[[0,0.49,0,0,0],[0.15,0.15,0,0,0],[0.15,0.86,0,0,0],[0.5,0,0,0,0],[0.5,1,0,0,0],[0.85,0.15,0,0,0],[0.85,0.86,0,0,0],[1,0.49,0,0,0]];" parent="wojboqunz96ooFiyqucH-1" vertex="1">
          <mxGeometry x="139.99849056603765" y="1900.0046153846151" width="135.0943396226415" height="68.7179487179487" as="geometry" />
        </mxCell>
        <mxCell id="HGoTmEdLcFwjstujymGU-178" style="edgeStyle=orthogonalEdgeStyle;rounded=0;orthogonalLoop=1;jettySize=auto;html=1;entryX=0.308;entryY=0.076;entryDx=0;entryDy=0;endArrow=none;endFill=0;entryPerimeter=0;" parent="wojboqunz96ooFiyqucH-1" source="HGoTmEdLcFwjstujymGU-173" target="HGoTmEdLcFwjstujymGU-174" edge="1">
          <mxGeometry x="1" y="230" relative="1" as="geometry">
            <mxPoint x="415.0958490566038" y="1797.3815384615382" as="sourcePoint" />
            <mxPoint x="321.0207547169814" y="1861.8525641025635" as="targetPoint" />
            <mxPoint x="-57" y="152" as="offset" />
          </mxGeometry>
        </mxCell>
        <mxCell id="HGoTmEdLcFwjstujymGU-179" style="edgeStyle=orthogonalEdgeStyle;rounded=0;orthogonalLoop=1;jettySize=auto;html=1;exitX=0.086;exitY=0.77;exitDx=0;exitDy=0;entryX=0.5;entryY=1;entryDx=0;entryDy=0;endArrow=none;endFill=0;exitPerimeter=0;entryPerimeter=0;" parent="wojboqunz96ooFiyqucH-1" source="HGoTmEdLcFwjstujymGU-173" target="HGoTmEdLcFwjstujymGU-175" edge="1">
          <mxGeometry x="1" y="230" relative="1" as="geometry">
            <mxPoint x="201.0958490566038" y="1829.3515384615382" as="sourcePoint" />
            <mxPoint x="107.0207547169814" y="1893.8225641025635" as="targetPoint" />
            <mxPoint x="-57" y="152" as="offset" />
          </mxGeometry>
        </mxCell>
        <mxCell id="HGoTmEdLcFwjstujymGU-185" value="&lt;font style=&quot;font-size: 36px;&quot;&gt;Agreement&lt;/font&gt;" style="whiteSpace=wrap;html=1;align=center;" parent="wojboqunz96ooFiyqucH-1" vertex="1">
          <mxGeometry x="621.435283018868" y="2009.9971794871794" width="243.1698113207547" height="96.20512820512819" as="geometry" />
        </mxCell>
        <mxCell id="HGoTmEdLcFwjstujymGU-196" value="&lt;font style=&quot;font-size: 24px;&quot;&gt;Create&lt;/font&gt;" style="shape=rhombus;perimeter=rhombusPerimeter;whiteSpace=wrap;html=1;align=center;" parent="wojboqunz96ooFiyqucH-1" vertex="1">
          <mxGeometry x="449.99773584905654" y="1726.2817948717948" width="162.1132075471698" height="103.07692307692308" as="geometry" />
        </mxCell>
        <mxCell id="HGoTmEdLcFwjstujymGU-198" style="edgeStyle=orthogonalEdgeStyle;rounded=0;orthogonalLoop=1;jettySize=auto;html=1;entryX=0.5;entryY=0;entryDx=0;entryDy=0;endArrow=none;endFill=0;exitX=0.25;exitY=1;exitDx=0;exitDy=0;" parent="wojboqunz96ooFiyqucH-1" source="wojboqunz96ooFiyqucH-3" target="HGoTmEdLcFwjstujymGU-196" edge="1">
          <mxGeometry x="1" y="230" relative="1" as="geometry">
            <mxPoint x="317.9400000000003" y="1536.9523076923083" as="sourcePoint" />
            <mxPoint x="553.8918867924529" y="1695.1271794871795" as="targetPoint" />
            <mxPoint x="-57" y="152" as="offset" />
            <Array as="points">
              <mxPoint x="526" y="1695" />
              <mxPoint x="531" y="1695" />
            </Array>
          </mxGeometry>
        </mxCell>
        <mxCell id="HGoTmEdLcFwjstujymGU-201" style="edgeStyle=orthogonalEdgeStyle;rounded=0;orthogonalLoop=1;jettySize=auto;html=1;exitX=0.5;exitY=1;exitDx=0;exitDy=0;entryX=0;entryY=0;entryDx=0;entryDy=0;endArrow=none;endFill=0;" parent="wojboqunz96ooFiyqucH-1" source="HGoTmEdLcFwjstujymGU-196" target="HGoTmEdLcFwjstujymGU-185" edge="1">
          <mxGeometry x="1" y="230" relative="1" as="geometry">
            <mxPoint x="560.0114525743311" y="1910.085021067121" as="sourcePoint" />
            <mxPoint x="627.4573584905656" y="1941.2802564102562" as="targetPoint" />
            <mxPoint x="-57" y="152" as="offset" />
            <Array as="points">
              <mxPoint x="531" y="1921" />
              <mxPoint x="628" y="1921" />
              <mxPoint x="628" y="2010" />
            </Array>
          </mxGeometry>
        </mxCell>
        <mxCell id="HGoTmEdLcFwjstujymGU-187" value="Invoicing Period" style="ellipse;whiteSpace=wrap;html=1;align=center;" parent="wojboqunz96ooFiyqucH-1" vertex="1">
          <mxGeometry x="329.99849056603773" y="2000.6446153846155" width="135.0943396226415" height="68.7179487179487" as="geometry" />
        </mxCell>
        <mxCell id="HGoTmEdLcFwjstujymGU-210" style="edgeStyle=orthogonalEdgeStyle;rounded=0;orthogonalLoop=1;jettySize=auto;html=1;entryX=0;entryY=0.25;entryDx=0;entryDy=0;endArrow=none;endFill=0;exitX=1;exitY=0.5;exitDx=0;exitDy=0;" parent="wojboqunz96ooFiyqucH-1" source="HGoTmEdLcFwjstujymGU-187" target="HGoTmEdLcFwjstujymGU-185" edge="1">
          <mxGeometry x="1" y="230" relative="1" as="geometry">
            <mxPoint x="466.001886792453" y="2033.8851282051287" as="sourcePoint" />
            <mxPoint x="560.0626415094341" y="2082.3151282051285" as="targetPoint" />
            <mxPoint x="-57" y="152" as="offset" />
          </mxGeometry>
        </mxCell>
        <mxCell id="7mZElqCdtzCGHnQOhd71-339" value="&lt;font style=&quot;font-size: 24px;&quot;&gt;Collection and delivery locations&lt;/font&gt;" style="whiteSpace=wrap;html=1;align=center;" parent="wojboqunz96ooFiyqucH-1" vertex="1">
          <mxGeometry x="-120.0047169811321" y="1525.5871794871796" width="243.1698113207547" height="96.20512820512819" as="geometry" />
        </mxCell>
        <mxCell id="HGoTmEdLcFwjstujymGU-172" style="edgeStyle=orthogonalEdgeStyle;rounded=0;orthogonalLoop=1;jettySize=auto;html=1;exitX=0.5;exitY=0;exitDx=0;exitDy=0;entryX=0.407;entryY=1.006;entryDx=0;entryDy=0;endArrow=none;endFill=0;entryPerimeter=0;" parent="wojboqunz96ooFiyqucH-1" source="HGoTmEdLcFwjstujymGU-8" target="7mZElqCdtzCGHnQOhd71-339" edge="1">
          <mxGeometry x="1" y="230" relative="1" as="geometry">
            <mxPoint x="-128.37415094339622" y="1984.251538461538" as="sourcePoint" />
            <mxPoint x="-222.44924528301863" y="2048.7225641025634" as="targetPoint" />
            <mxPoint x="-57" y="152" as="offset" />
          </mxGeometry>
        </mxCell>
        <mxCell id="HGoTmEdLcFwjstujymGU-180" style="edgeStyle=orthogonalEdgeStyle;rounded=0;orthogonalLoop=1;jettySize=auto;html=1;entryX=0.5;entryY=0;entryDx=0;entryDy=0;endArrow=none;endFill=0;" parent="wojboqunz96ooFiyqucH-1" source="7mZElqCdtzCGHnQOhd71-339" target="HGoTmEdLcFwjstujymGU-173" edge="1">
          <mxGeometry x="1" y="230" relative="1" as="geometry">
            <mxPoint x="174.07584905660383" y="1645.6615384615382" as="sourcePoint" />
            <mxPoint x="80.00075471698142" y="1710.1325641025635" as="targetPoint" />
            <mxPoint x="-57" y="152" as="offset" />
            <Array as="points">
              <mxPoint x="-8" y="1640" />
              <mxPoint x="100" y="1640" />
              <mxPoint x="100" y="1770" />
            </Array>
          </mxGeometry>
        </mxCell>
        <mxCell id="HGoTmEdLcFwjstujymGU-220" value="" style="endArrow=none;html=1;rounded=0;fontSize=16;exitX=0.5;exitY=0;exitDx=0;exitDy=0;entryX=0.521;entryY=0.977;entryDx=0;entryDy=0;entryPerimeter=0;" parent="wojboqunz96ooFiyqucH-1" target="7mZElqCdtzCGHnQOhd71-337" edge="1">
          <mxGeometry x="0.5628" y="-16" relative="1" as="geometry">
            <mxPoint x="6.580188679245111" y="1525.5371794871796" as="sourcePoint" />
            <mxPoint x="-3.420377358490441" y="1431.0007692307697" as="targetPoint" />
            <mxPoint as="offset" />
          </mxGeometry>
        </mxCell>
        <mxCell id="HGoTmEdLcFwjstujymGU-222" value="ADD" style="shape=rhombus;perimeter=rhombusPerimeter;whiteSpace=wrap;html=1;align=center;" parent="wojboqunz96ooFiyqucH-1" vertex="1">
          <mxGeometry x="-103.42000000000007" y="1314.23" width="190" height="130" as="geometry" />
        </mxCell>
        <mxCell id="HGoTmEdLcFwjstujymGU-392" value="&lt;font style=&quot;font-size: 18px;&quot;&gt;ADD&lt;/font&gt;" style="shape=rhombus;perimeter=rhombusPerimeter;whiteSpace=wrap;html=1;align=center;" parent="wojboqunz96ooFiyqucH-1" vertex="1">
          <mxGeometry x="86.5830188679248" y="652.823846153846" width="162.1132075471698" height="103.07692307692308" as="geometry" />
        </mxCell>
        <mxCell id="HGoTmEdLcFwjstujymGU-395" value="" style="endArrow=none;html=1;rounded=0;fontSize=16;exitX=0.5;exitY=1;exitDx=0;exitDy=0;" parent="wojboqunz96ooFiyqucH-1" source="HGoTmEdLcFwjstujymGU-392" edge="1">
          <mxGeometry relative="1" as="geometry">
            <mxPoint x="74.2162264150943" y="797.6223076923079" as="sourcePoint" />
            <mxPoint x="350" y="910" as="targetPoint" />
            <Array as="points">
              <mxPoint x="168" y="910" />
            </Array>
          </mxGeometry>
        </mxCell>
        <mxCell id="HGoTmEdLcFwjstujymGU-409" value="Net_Amount" style="ellipse;whiteSpace=wrap;html=1;align=center;" parent="wojboqunz96ooFiyqucH-1" vertex="1">
          <mxGeometry x="283.69641509433956" y="250.0046153846153" width="135.0943396226415" height="68.7179487179487" as="geometry" />
        </mxCell>
        <mxCell id="HGoTmEdLcFwjstujymGU-412" value="Vat_Amount" style="ellipse;whiteSpace=wrap;html=1;align=center;" parent="wojboqunz96ooFiyqucH-1" vertex="1">
          <mxGeometry x="209.99641509433957" y="326.4146153846152" width="135.0943396226415" height="68.7179487179487" as="geometry" />
        </mxCell>
        <mxCell id="HGoTmEdLcFwjstujymGU-423" value="Related_Catogory" style="ellipse;whiteSpace=wrap;html=1;align=center;" parent="wojboqunz96ooFiyqucH-1" vertex="1">
          <mxGeometry x="248.6964150943395" y="120.25461538461536" width="135.0943396226415" height="68.7179487179487" as="geometry" />
        </mxCell>
        <mxCell id="HGoTmEdLcFwjstujymGU-425" value="M" style="text;html=1;align=center;verticalAlign=middle;resizable=0;points=[];autosize=1;strokeColor=none;fillColor=none;" parent="wojboqunz96ooFiyqucH-1" vertex="1">
          <mxGeometry x="-13.417169811320946" y="390.00076923076904" width="30" height="20" as="geometry" />
        </mxCell>
        <mxCell id="HGoTmEdLcFwjstujymGU-426" value="1" style="text;html=1;align=center;verticalAlign=middle;resizable=0;points=[];autosize=1;strokeColor=none;fillColor=none;" parent="wojboqunz96ooFiyqucH-1" vertex="1">
          <mxGeometry x="315.09283018867893" y="908.3307692307691" width="30" height="30" as="geometry" />
        </mxCell>
        <mxCell id="HGoTmEdLcFwjstujymGU-427" value="1" style="text;html=1;align=center;verticalAlign=middle;resizable=0;points=[];autosize=1;strokeColor=none;fillColor=none;" parent="wojboqunz96ooFiyqucH-1" vertex="1">
          <mxGeometry x="442.83283018867894" y="994.6907692307691" width="30" height="30" as="geometry" />
        </mxCell>
        <mxCell id="HGoTmEdLcFwjstujymGU-608" value="" style="endArrow=none;html=1;rounded=0;fontSize=16;exitX=0;exitY=0.5;exitDx=0;exitDy=0;entryX=1;entryY=0.5;entryDx=0;entryDy=0;" parent="wojboqunz96ooFiyqucH-1" source="wojboqunz96ooFiyqucH-68" target="wojboqunz96ooFiyqucH-86" edge="1">
          <mxGeometry relative="1" as="geometry">
            <mxPoint x="1884.5630188679247" y="912.5623076923075" as="sourcePoint" />
            <mxPoint x="1674.447547169811" y="887.656153846154" as="targetPoint" />
          </mxGeometry>
        </mxCell>
        <mxCell id="HGoTmEdLcFwjstujymGU-609" value="1" style="text;html=1;align=center;verticalAlign=middle;resizable=0;points=[];autosize=1;strokeColor=none;fillColor=none;" parent="wojboqunz96ooFiyqucH-1" vertex="1">
          <mxGeometry x="1269.8858490566035" y="878.5433333333333" width="30" height="30" as="geometry" />
        </mxCell>
        <mxCell id="7mZElqCdtzCGHnQOhd71-337" value="&lt;font style=&quot;font-size: 18px;&quot;&gt;PROVIDE&lt;/font&gt;" style="shape=rhombus;perimeter=rhombusPerimeter;whiteSpace=wrap;html=1;align=center;" parent="wojboqunz96ooFiyqucH-1" vertex="1">
          <mxGeometry x="-89.47698113207525" y="1327.7038461538464" width="162.1132075471698" height="103.07692307692308" as="geometry" />
        </mxCell>
        <mxCell id="HGoTmEdLcFwjstujymGU-219" value="" style="endArrow=none;html=1;rounded=0;fontSize=16;exitX=0.5;exitY=0;exitDx=0;exitDy=0;entryX=0.5;entryY=1;entryDx=0;entryDy=0;" parent="wojboqunz96ooFiyqucH-1" source="7mZElqCdtzCGHnQOhd71-339" target="7mZElqCdtzCGHnQOhd71-337" edge="1">
          <mxGeometry relative="1" as="geometry">
            <mxPoint x="1.7088679245280218" y="1463.7338461538463" as="sourcePoint" />
            <mxPoint x="65.09369811320721" y="1373.7633333333335" as="targetPoint" />
          </mxGeometry>
        </mxCell>
        <mxCell id="HGoTmEdLcFwjstujymGU-612" value="" style="endArrow=none;html=1;rounded=0;fontSize=16;exitX=0.998;exitY=0.327;exitDx=0;exitDy=0;entryX=0;entryY=0;entryDx=0;entryDy=0;exitPerimeter=0;" parent="wojboqunz96ooFiyqucH-1" source="wojboqunz96ooFiyqucH-68" target="wojboqunz96ooFiyqucH-14" edge="1">
          <mxGeometry relative="1" as="geometry">
            <mxPoint x="2084.094150943396" y="867.1571794871795" as="sourcePoint" />
            <mxPoint x="2114.49037735849" y="793.2853846153841" as="targetPoint" />
            <Array as="points" />
          </mxGeometry>
        </mxCell>
        <mxCell id="HGoTmEdLcFwjstujymGU-614" value="Quality" style="ellipse;whiteSpace=wrap;html=1;align=center;" parent="wojboqunz96ooFiyqucH-1" vertex="1">
          <mxGeometry x="2070.0030188679243" y="1406.1846153846154" width="135.0943396226415" height="68.7179487179487" as="geometry" />
        </mxCell>
        <mxCell id="HGoTmEdLcFwjstujymGU-615" value="&lt;font style=&quot;font-size: 18px;&quot;&gt;ITEMS Recieved&lt;br&gt;&lt;/font&gt;" style="whiteSpace=wrap;html=1;align=center;" parent="wojboqunz96ooFiyqucH-1" vertex="1">
          <mxGeometry x="1832.3771698113205" y="1371.8271794871794" width="175.62264150943392" height="103.07692307692308" as="geometry" />
        </mxCell>
        <mxCell id="HGoTmEdLcFwjstujymGU-617" value="Item Details" style="ellipse;whiteSpace=wrap;html=1;align=center;" parent="wojboqunz96ooFiyqucH-1" vertex="1">
          <mxGeometry x="1764.83" y="1177.6989743589745" width="135.0943396226415" height="68.7179487179487" as="geometry" />
        </mxCell>
        <mxCell id="HGoTmEdLcFwjstujymGU-618" value="QTY" style="ellipse;whiteSpace=wrap;html=1;align=center;" parent="wojboqunz96ooFiyqucH-1" vertex="1">
          <mxGeometry x="1926.9432075471698" y="1229.2374358974357" width="135.0943396226415" height="68.7179487179487" as="geometry" />
        </mxCell>
        <mxCell id="HGoTmEdLcFwjstujymGU-619" value="Damaged" style="ellipse;whiteSpace=wrap;html=1;align=center;" parent="wojboqunz96ooFiyqucH-1" vertex="1">
          <mxGeometry x="2280.001698113207" y="1344.3441025641023" width="141.84905660377353" height="73.87179487179486" as="geometry" />
        </mxCell>
        <mxCell id="HGoTmEdLcFwjstujymGU-620" value="Stain" style="ellipse;whiteSpace=wrap;html=1;align=center;" parent="wojboqunz96ooFiyqucH-1" vertex="1">
          <mxGeometry x="2170.0015094339615" y="1245.5146153846154" width="135.0943396226415" height="68.7179487179487" as="geometry" />
        </mxCell>
        <mxCell id="HGoTmEdLcFwjstujymGU-621" value="&lt;font style=&quot;font-size: 18px;&quot;&gt;ADD&lt;/font&gt;" style="shape=rhombus;perimeter=rhombusPerimeter;whiteSpace=wrap;html=1;align=center;" parent="wojboqunz96ooFiyqucH-1" vertex="1">
          <mxGeometry x="1530.0030188679248" y="1185.383846153846" width="162.1132075471698" height="103.07692307692308" as="geometry" />
        </mxCell>
        <mxCell id="HGoTmEdLcFwjstujymGU-622" value="" style="endArrow=none;html=1;rounded=0;fontSize=16;exitX=0.392;exitY=0.029;exitDx=0;exitDy=0;entryX=0.5;entryY=1;entryDx=0;entryDy=0;exitPerimeter=0;" parent="wojboqunz96ooFiyqucH-1" source="HGoTmEdLcFwjstujymGU-615" target="HGoTmEdLcFwjstujymGU-617" edge="1">
          <mxGeometry relative="1" as="geometry">
            <mxPoint x="2858.3394339622646" y="3145.911794871795" as="sourcePoint" />
            <mxPoint x="2709.7356603773583" y="2939.7579487179482" as="targetPoint" />
          </mxGeometry>
        </mxCell>
        <mxCell id="HGoTmEdLcFwjstujymGU-623" value="" style="endArrow=none;html=1;rounded=0;fontSize=16;exitX=0.75;exitY=0;exitDx=0;exitDy=0;entryX=0.5;entryY=1;entryDx=0;entryDy=0;" parent="wojboqunz96ooFiyqucH-1" source="HGoTmEdLcFwjstujymGU-615" target="HGoTmEdLcFwjstujymGU-618" edge="1">
          <mxGeometry relative="1" as="geometry">
            <mxPoint x="2871.8488679245283" y="3163.091282051282" as="sourcePoint" />
            <mxPoint x="2723.2450943396225" y="2956.9374358974355" as="targetPoint" />
          </mxGeometry>
        </mxCell>
        <mxCell id="HGoTmEdLcFwjstujymGU-627" value="M" style="text;html=1;align=center;verticalAlign=middle;resizable=0;points=[];autosize=1;strokeColor=none;fillColor=none;" parent="wojboqunz96ooFiyqucH-1" vertex="1">
          <mxGeometry x="1795.9058490566035" y="1398.2133333333334" width="30" height="20" as="geometry" />
        </mxCell>
        <mxCell id="HGoTmEdLcFwjstujymGU-629" value="" style="endArrow=none;html=1;rounded=0;fontSize=16;exitX=0;exitY=0.5;exitDx=0;exitDy=0;entryX=1;entryY=0.5;entryDx=0;entryDy=0;" parent="wojboqunz96ooFiyqucH-1" source="HGoTmEdLcFwjstujymGU-615" target="HGoTmEdLcFwjstujymGU-621" edge="1">
          <mxGeometry relative="1" as="geometry">
            <mxPoint x="2854.5630188679247" y="3154.9323076923074" as="sourcePoint" />
            <mxPoint x="2644.447547169811" y="3130.026153846154" as="targetPoint" />
          </mxGeometry>
        </mxCell>
        <mxCell id="HGoTmEdLcFwjstujymGU-630" value="" style="endArrow=none;html=1;rounded=0;fontSize=16;exitX=0.998;exitY=0.327;exitDx=0;exitDy=0;entryX=0;entryY=0;entryDx=0;entryDy=0;exitPerimeter=0;" parent="wojboqunz96ooFiyqucH-1" source="HGoTmEdLcFwjstujymGU-615" target="HGoTmEdLcFwjstujymGU-614" edge="1">
          <mxGeometry relative="1" as="geometry">
            <mxPoint x="3054.094150943396" y="3109.5271794871796" as="sourcePoint" />
            <mxPoint x="3084.49037735849" y="3035.6553846153843" as="targetPoint" />
            <Array as="points" />
          </mxGeometry>
        </mxCell>
        <mxCell id="HGoTmEdLcFwjstujymGU-631" value="" style="endArrow=none;html=1;rounded=0;fontSize=16;exitX=0;exitY=0.5;exitDx=0;exitDy=0;entryX=0.5;entryY=1;entryDx=0;entryDy=0;" parent="wojboqunz96ooFiyqucH-1" source="HGoTmEdLcFwjstujymGU-621" target="wojboqunz96ooFiyqucH-4" edge="1">
          <mxGeometry relative="1" as="geometry">
            <mxPoint x="1490.0030188679248" y="913.5423076923078" as="sourcePoint" />
            <mxPoint x="1279.8875471698102" y="888.6361538461535" as="targetPoint" />
          </mxGeometry>
        </mxCell>
        <mxCell id="HGoTmEdLcFwjstujymGU-632" value="1" style="text;html=1;align=center;verticalAlign=middle;resizable=0;points=[];autosize=1;strokeColor=none;fillColor=none;" parent="wojboqunz96ooFiyqucH-1" vertex="1">
          <mxGeometry x="1149.9958490566037" y="943.0633333333333" width="30" height="30" as="geometry" />
        </mxCell>
        <mxCell id="HGoTmEdLcFwjstujymGU-636" value="Remarks" style="ellipse;whiteSpace=wrap;html=1;align=center;" parent="wojboqunz96ooFiyqucH-1" vertex="1">
          <mxGeometry x="2163.251698113207" y="1577.7041025641022" width="141.84905660377353" height="73.87179487179486" as="geometry" />
        </mxCell>
        <mxCell id="HGoTmEdLcFwjstujymGU-637" value="Rewash" style="ellipse;whiteSpace=wrap;html=1;align=center;" parent="wojboqunz96ooFiyqucH-1" vertex="1">
          <mxGeometry x="2286.7515094339615" y="1474.9046153846152" width="135.0943396226415" height="68.7179487179487" as="geometry" />
        </mxCell>
        <mxCell id="HGoTmEdLcFwjstujymGU-638" value="" style="endArrow=none;html=1;rounded=0;fontSize=16;exitX=0.71;exitY=0.02;exitDx=0;exitDy=0;entryX=0.37;entryY=1.05;entryDx=0;entryDy=0;entryPerimeter=0;exitPerimeter=0;" parent="wojboqunz96ooFiyqucH-1" source="HGoTmEdLcFwjstujymGU-614" target="HGoTmEdLcFwjstujymGU-620" edge="1">
          <mxGeometry relative="1" as="geometry">
            <mxPoint x="2150.004150943396" y="1406.1871794871786" as="sourcePoint" />
            <mxPoint x="2180.40037735849" y="1332.315384615385" as="targetPoint" />
          </mxGeometry>
        </mxCell>
        <mxCell id="HGoTmEdLcFwjstujymGU-639" value="" style="endArrow=none;html=1;rounded=0;fontSize=16;exitX=0.971;exitY=0.311;exitDx=0;exitDy=0;entryX=0.041;entryY=0.684;entryDx=0;entryDy=0;entryPerimeter=0;exitPerimeter=0;" parent="wojboqunz96ooFiyqucH-1" source="HGoTmEdLcFwjstujymGU-614" target="HGoTmEdLcFwjstujymGU-619" edge="1">
          <mxGeometry x="0.6075" y="-250" relative="1" as="geometry">
            <mxPoint x="2218.974150943396" y="1480.0571794871787" as="sourcePoint" />
            <mxPoint x="2249.3703773584903" y="1406.1853846153851" as="targetPoint" />
            <mxPoint y="1" as="offset" />
          </mxGeometry>
        </mxCell>
        <mxCell id="HGoTmEdLcFwjstujymGU-640" value="" style="endArrow=none;html=1;rounded=0;fontSize=16;exitX=0.967;exitY=0.657;exitDx=0;exitDy=0;entryX=0;entryY=0.5;entryDx=0;entryDy=0;exitPerimeter=0;" parent="wojboqunz96ooFiyqucH-1" source="HGoTmEdLcFwjstujymGU-614" target="HGoTmEdLcFwjstujymGU-637" edge="1">
          <mxGeometry relative="1" as="geometry">
            <mxPoint x="2182.174150943396" y="1541.5671794871787" as="sourcePoint" />
            <mxPoint x="2212.57037735849" y="1467.6953846153851" as="targetPoint" />
          </mxGeometry>
        </mxCell>
        <mxCell id="HGoTmEdLcFwjstujymGU-641" value="" style="endArrow=none;html=1;rounded=0;fontSize=16;exitX=0.442;exitY=0.022;exitDx=0;exitDy=0;entryX=0.632;entryY=0.996;entryDx=0;entryDy=0;entryPerimeter=0;exitPerimeter=0;" parent="wojboqunz96ooFiyqucH-1" source="HGoTmEdLcFwjstujymGU-636" target="HGoTmEdLcFwjstujymGU-614" edge="1">
          <mxGeometry relative="1" as="geometry">
            <mxPoint x="2077.474150943396" y="1571.0871794871787" as="sourcePoint" />
            <mxPoint x="2107.8703773584903" y="1497.2153846153851" as="targetPoint" />
          </mxGeometry>
        </mxCell>
        <mxCell id="HGoTmEdLcFwjstujymGU-642" value="Treatment" style="ellipse;whiteSpace=wrap;html=1;align=center;" parent="wojboqunz96ooFiyqucH-1" vertex="1">
          <mxGeometry x="2028.1599999999999" y="1529.9989743589745" width="135.0943396226415" height="68.7179487179487" as="geometry" />
        </mxCell>
        <mxCell id="HGoTmEdLcFwjstujymGU-643" value="" style="endArrow=none;html=1;rounded=0;fontSize=16;exitX=0.5;exitY=0;exitDx=0;exitDy=0;entryX=1;entryY=1;entryDx=0;entryDy=0;" parent="wojboqunz96ooFiyqucH-1" source="HGoTmEdLcFwjstujymGU-642" target="HGoTmEdLcFwjstujymGU-615" edge="1">
          <mxGeometry x="-1" y="-146" relative="1" as="geometry">
            <mxPoint x="1882.264150943396" y="1577.707179487179" as="sourcePoint" />
            <mxPoint x="1912.6603773584902" y="1503.835384615384" as="targetPoint" />
            <mxPoint x="-139" y="90" as="offset" />
          </mxGeometry>
        </mxCell>
        <mxCell id="HGoTmEdLcFwjstujymGU-644" value="&lt;u&gt;Item No&lt;/u&gt;" style="ellipse;whiteSpace=wrap;html=1;align=center;" parent="wojboqunz96ooFiyqucH-1" vertex="1">
          <mxGeometry x="1729.9950943396223" y="1553.0720512820515" width="135.0943396226415" height="68.7179487179487" as="geometry" />
        </mxCell>
        <mxCell id="HGoTmEdLcFwjstujymGU-645" value="" style="endArrow=none;html=1;rounded=0;fontSize=16;exitX=0.5;exitY=0;exitDx=0;exitDy=0;entryX=0.06;entryY=0.99;entryDx=0;entryDy=0;entryPerimeter=0;" parent="wojboqunz96ooFiyqucH-1" source="HGoTmEdLcFwjstujymGU-644" target="HGoTmEdLcFwjstujymGU-615" edge="1">
          <mxGeometry x="-1" y="-146" relative="1" as="geometry">
            <mxPoint x="1822.1071698113205" y="1550.4289743589752" as="sourcePoint" />
            <mxPoint x="1772.977094339622" y="1468.0971794871793" as="targetPoint" />
            <mxPoint x="-139" y="90" as="offset" />
          </mxGeometry>
        </mxCell>
        <mxCell id="ZRxdG0ryZlhFscVbbjT4-2" value="Quality" style="ellipse;whiteSpace=wrap;html=1;align=center;" vertex="1" parent="wojboqunz96ooFiyqucH-1">
          <mxGeometry x="1840.0030188679243" y="2152.4746153846154" width="135.0943396226415" height="68.7179487179487" as="geometry" />
        </mxCell>
        <mxCell id="ZRxdG0ryZlhFscVbbjT4-3" value="&lt;font style=&quot;font-size: 18px;&quot;&gt;ITEMS Dispatch&lt;br&gt;&lt;/font&gt;" style="whiteSpace=wrap;html=1;align=center;" vertex="1" parent="wojboqunz96ooFiyqucH-1">
          <mxGeometry x="1480.5271698113206" y="1914.1271794871793" width="175.62264150943392" height="103.07692307692308" as="geometry" />
        </mxCell>
        <mxCell id="ZRxdG0ryZlhFscVbbjT4-4" value="Vecile Driver" style="ellipse;whiteSpace=wrap;html=1;align=center;" vertex="1" parent="wojboqunz96ooFiyqucH-1">
          <mxGeometry x="1412.98" y="1719.9989743589745" width="135.0943396226415" height="68.7179487179487" as="geometry" />
        </mxCell>
        <mxCell id="ZRxdG0ryZlhFscVbbjT4-5" value="Dilivery Veicle" style="ellipse;whiteSpace=wrap;html=1;align=center;" vertex="1" parent="wojboqunz96ooFiyqucH-1">
          <mxGeometry x="1540.0032075471697" y="1779.9974358974357" width="135.0943396226415" height="68.7179487179487" as="geometry" />
        </mxCell>
        <mxCell id="ZRxdG0ryZlhFscVbbjT4-6" value="Damaged" style="ellipse;whiteSpace=wrap;html=1;align=center;" vertex="1" parent="wojboqunz96ooFiyqucH-1">
          <mxGeometry x="2050.001698113207" y="2090.6341025641022" width="141.84905660377353" height="73.87179487179486" as="geometry" />
        </mxCell>
        <mxCell id="ZRxdG0ryZlhFscVbbjT4-7" value="Destroyed" style="ellipse;whiteSpace=wrap;html=1;align=center;" vertex="1" parent="wojboqunz96ooFiyqucH-1">
          <mxGeometry x="1940.0015094339615" y="1991.8046153846153" width="135.0943396226415" height="68.7179487179487" as="geometry" />
        </mxCell>
        <mxCell id="ZRxdG0ryZlhFscVbbjT4-8" value="" style="endArrow=none;html=1;rounded=0;fontSize=16;exitX=0.392;exitY=0.029;exitDx=0;exitDy=0;entryX=0.5;entryY=1;entryDx=0;entryDy=0;exitPerimeter=0;" edge="1" parent="wojboqunz96ooFiyqucH-1" source="ZRxdG0ryZlhFscVbbjT4-3" target="ZRxdG0ryZlhFscVbbjT4-4">
          <mxGeometry relative="1" as="geometry">
            <mxPoint x="3526.4894339622647" y="5468.211794871795" as="sourcePoint" />
            <mxPoint x="3377.8856603773584" y="5262.057948717948" as="targetPoint" />
          </mxGeometry>
        </mxCell>
        <mxCell id="ZRxdG0ryZlhFscVbbjT4-9" value="" style="endArrow=none;html=1;rounded=0;fontSize=16;exitX=0.75;exitY=0;exitDx=0;exitDy=0;entryX=0.5;entryY=1;entryDx=0;entryDy=0;" edge="1" parent="wojboqunz96ooFiyqucH-1" source="ZRxdG0ryZlhFscVbbjT4-3" target="ZRxdG0ryZlhFscVbbjT4-5">
          <mxGeometry relative="1" as="geometry">
            <mxPoint x="3539.9988679245284" y="5485.391282051282" as="sourcePoint" />
            <mxPoint x="3391.3950943396226" y="5279.237435897436" as="targetPoint" />
          </mxGeometry>
        </mxCell>
        <mxCell id="ZRxdG0ryZlhFscVbbjT4-10" value="M" style="text;html=1;align=center;verticalAlign=middle;resizable=0;points=[];autosize=1;strokeColor=none;fillColor=none;" vertex="1" parent="wojboqunz96ooFiyqucH-1">
          <mxGeometry x="1444.0558490566036" y="1940.5133333333333" width="30" height="20" as="geometry" />
        </mxCell>
        <mxCell id="ZRxdG0ryZlhFscVbbjT4-11" value="" style="endArrow=none;html=1;rounded=0;fontSize=16;exitX=1;exitY=0;exitDx=0;exitDy=0;entryX=0.5;entryY=1;entryDx=0;entryDy=0;" edge="1" parent="wojboqunz96ooFiyqucH-1" source="ZRxdG0ryZlhFscVbbjT4-3" target="ZRxdG0ryZlhFscVbbjT4-164">
          <mxGeometry relative="1" as="geometry">
            <mxPoint x="3522.713018867925" y="5477.232307692308" as="sourcePoint" />
            <mxPoint x="1340.2662264150945" y="1779.2223076923076" as="targetPoint" />
          </mxGeometry>
        </mxCell>
        <mxCell id="ZRxdG0ryZlhFscVbbjT4-12" value="" style="endArrow=none;html=1;rounded=0;fontSize=16;exitX=1;exitY=0.75;exitDx=0;exitDy=0;entryX=0;entryY=0;entryDx=0;entryDy=0;" edge="1" parent="wojboqunz96ooFiyqucH-1" source="ZRxdG0ryZlhFscVbbjT4-3" target="ZRxdG0ryZlhFscVbbjT4-2">
          <mxGeometry relative="1" as="geometry">
            <mxPoint x="3722.244150943396" y="5431.82717948718" as="sourcePoint" />
            <mxPoint x="3752.6403773584902" y="5357.955384615384" as="targetPoint" />
            <Array as="points" />
          </mxGeometry>
        </mxCell>
        <mxCell id="ZRxdG0ryZlhFscVbbjT4-14" value="Not reated" style="ellipse;whiteSpace=wrap;html=1;align=center;" vertex="1" parent="wojboqunz96ooFiyqucH-1">
          <mxGeometry x="2056.7515094339615" y="2221.194615384615" width="135.0943396226415" height="68.7179487179487" as="geometry" />
        </mxCell>
        <mxCell id="ZRxdG0ryZlhFscVbbjT4-15" value="" style="endArrow=none;html=1;rounded=0;fontSize=16;exitX=0.71;exitY=0.02;exitDx=0;exitDy=0;entryX=0.37;entryY=1.05;entryDx=0;entryDy=0;entryPerimeter=0;exitPerimeter=0;" edge="1" parent="wojboqunz96ooFiyqucH-1" source="ZRxdG0ryZlhFscVbbjT4-2" target="ZRxdG0ryZlhFscVbbjT4-7">
          <mxGeometry relative="1" as="geometry">
            <mxPoint x="2940.004150943396" y="3932.4771794871785" as="sourcePoint" />
            <mxPoint x="2970.40037735849" y="3858.6053846153845" as="targetPoint" />
          </mxGeometry>
        </mxCell>
        <mxCell id="ZRxdG0ryZlhFscVbbjT4-16" value="" style="endArrow=none;html=1;rounded=0;fontSize=16;exitX=0.971;exitY=0.311;exitDx=0;exitDy=0;entryX=0.041;entryY=0.684;entryDx=0;entryDy=0;entryPerimeter=0;exitPerimeter=0;" edge="1" parent="wojboqunz96ooFiyqucH-1" source="ZRxdG0ryZlhFscVbbjT4-2" target="ZRxdG0ryZlhFscVbbjT4-6">
          <mxGeometry x="0.6075" y="-250" relative="1" as="geometry">
            <mxPoint x="3008.974150943396" y="4006.3471794871784" as="sourcePoint" />
            <mxPoint x="3039.3703773584903" y="3932.4753846153853" as="targetPoint" />
            <mxPoint y="1" as="offset" />
          </mxGeometry>
        </mxCell>
        <mxCell id="ZRxdG0ryZlhFscVbbjT4-17" value="" style="endArrow=none;html=1;rounded=0;fontSize=16;exitX=0.967;exitY=0.657;exitDx=0;exitDy=0;entryX=0;entryY=0.5;entryDx=0;entryDy=0;exitPerimeter=0;" edge="1" parent="wojboqunz96ooFiyqucH-1" source="ZRxdG0ryZlhFscVbbjT4-2" target="ZRxdG0ryZlhFscVbbjT4-14">
          <mxGeometry relative="1" as="geometry">
            <mxPoint x="2972.174150943396" y="4067.8571794871787" as="sourcePoint" />
            <mxPoint x="3002.57037735849" y="3993.9853846153846" as="targetPoint" />
          </mxGeometry>
        </mxCell>
        <mxCell id="ZRxdG0ryZlhFscVbbjT4-18" value="" style="endArrow=none;html=1;rounded=0;fontSize=16;exitX=0.5;exitY=0;exitDx=0;exitDy=0;entryX=0.75;entryY=1;entryDx=0;entryDy=0;" edge="1" parent="wojboqunz96ooFiyqucH-1" source="ZRxdG0ryZlhFscVbbjT4-163" target="ZRxdG0ryZlhFscVbbjT4-3">
          <mxGeometry relative="1" as="geometry">
            <mxPoint x="1874.098981132075" y="2121.6292820512817" as="sourcePoint" />
            <mxPoint x="2776.0203773584904" y="3819.5153846153853" as="targetPoint" />
          </mxGeometry>
        </mxCell>
        <mxCell id="ZRxdG0ryZlhFscVbbjT4-19" value="Customer" style="ellipse;whiteSpace=wrap;html=1;align=center;" vertex="1" parent="wojboqunz96ooFiyqucH-1">
          <mxGeometry x="1430" y="2085.9189743589745" width="135.0943396226415" height="68.7179487179487" as="geometry" />
        </mxCell>
        <mxCell id="ZRxdG0ryZlhFscVbbjT4-20" value="" style="endArrow=none;html=1;rounded=0;fontSize=16;exitX=0.5;exitY=0;exitDx=0;exitDy=0;entryX=0.5;entryY=1;entryDx=0;entryDy=0;" edge="1" parent="wojboqunz96ooFiyqucH-1" source="ZRxdG0ryZlhFscVbbjT4-19" target="ZRxdG0ryZlhFscVbbjT4-3">
          <mxGeometry x="-1" y="-146" relative="1" as="geometry">
            <mxPoint x="2550.414150943396" y="3900.007179487179" as="sourcePoint" />
            <mxPoint x="2580.8103773584903" y="3826.1353846153843" as="targetPoint" />
            <mxPoint x="-139" y="90" as="offset" />
          </mxGeometry>
        </mxCell>
        <mxCell id="ZRxdG0ryZlhFscVbbjT4-21" value="&lt;u&gt;Item No&lt;/u&gt;" style="ellipse;whiteSpace=wrap;html=1;align=center;" vertex="1" parent="wojboqunz96ooFiyqucH-1">
          <mxGeometry x="1308.965094339622" y="2037.4820512820513" width="135.0943396226415" height="68.7179487179487" as="geometry" />
        </mxCell>
        <mxCell id="ZRxdG0ryZlhFscVbbjT4-22" value="" style="endArrow=none;html=1;rounded=0;fontSize=16;exitX=0.5;exitY=0;exitDx=0;exitDy=0;entryX=0.06;entryY=0.99;entryDx=0;entryDy=0;entryPerimeter=0;" edge="1" parent="wojboqunz96ooFiyqucH-1" source="ZRxdG0ryZlhFscVbbjT4-21" target="ZRxdG0ryZlhFscVbbjT4-3">
          <mxGeometry x="-1" y="-146" relative="1" as="geometry">
            <mxPoint x="2490.2571698113206" y="3872.7289743589754" as="sourcePoint" />
            <mxPoint x="2441.127094339622" y="3790.3971794871795" as="targetPoint" />
            <mxPoint x="-139" y="90" as="offset" />
          </mxGeometry>
        </mxCell>
        <mxCell id="ZRxdG0ryZlhFscVbbjT4-163" value="Responsible Person" style="ellipse;whiteSpace=wrap;html=1;align=center;" vertex="1" parent="wojboqunz96ooFiyqucH-1">
          <mxGeometry x="1583.06" y="2069.3589743589746" width="135.0943396226415" height="68.7179487179487" as="geometry" />
        </mxCell>
        <mxCell id="ZRxdG0ryZlhFscVbbjT4-164" value="Qty" style="ellipse;whiteSpace=wrap;html=1;align=center;" vertex="1" parent="wojboqunz96ooFiyqucH-1">
          <mxGeometry x="1683.06" y="1719.9989743589745" width="135.0943396226415" height="68.7179487179487" as="geometry" />
        </mxCell>
        <mxCell id="ZRxdG0ryZlhFscVbbjT4-165" value="&lt;font style=&quot;font-size: 18px;&quot;&gt;MANAGE&lt;/font&gt;" style="shape=rhombus;perimeter=rhombusPerimeter;whiteSpace=wrap;html=1;align=center;" vertex="1" parent="wojboqunz96ooFiyqucH-1">
          <mxGeometry x="1160.0030188679248" y="1616.923846153846" width="162.1132075471698" height="103.07692307692308" as="geometry" />
        </mxCell>
        <mxCell id="ZRxdG0ryZlhFscVbbjT4-166" value="" style="endArrow=none;html=1;rounded=0;fontSize=16;exitX=0;exitY=0.25;exitDx=0;exitDy=0;entryX=0.5;entryY=1;entryDx=0;entryDy=0;" edge="1" parent="wojboqunz96ooFiyqucH-1" source="ZRxdG0ryZlhFscVbbjT4-3" target="ZRxdG0ryZlhFscVbbjT4-165">
          <mxGeometry relative="1" as="geometry">
            <mxPoint x="1188.8298113207536" y="1886.6471794871795" as="sourcePoint" />
            <mxPoint x="1283.287169811321" y="1761.2369230769236" as="targetPoint" />
          </mxGeometry>
        </mxCell>
        <mxCell id="ZRxdG0ryZlhFscVbbjT4-167" value="" style="endArrow=none;html=1;rounded=0;fontSize=16;exitX=0.5;exitY=0;exitDx=0;exitDy=0;entryX=0.046;entryY=1.019;entryDx=0;entryDy=0;entryPerimeter=0;" edge="1" parent="wojboqunz96ooFiyqucH-1" source="ZRxdG0ryZlhFscVbbjT4-165" target="wojboqunz96ooFiyqucH-4">
          <mxGeometry relative="1" as="geometry">
            <mxPoint x="1026.7198113207537" y="1430.7771794871796" as="sourcePoint" />
            <mxPoint x="1121.1771698113212" y="1305.3669230769237" as="targetPoint" />
          </mxGeometry>
        </mxCell>
        <mxCell id="ZRxdG0ryZlhFscVbbjT4-193" value="&lt;font style=&quot;font-size: 18px;&quot;&gt;Store&lt;/font&gt;" style="whiteSpace=wrap;html=1;align=center;" vertex="1" parent="wojboqunz96ooFiyqucH-1">
          <mxGeometry x="2354.2971698113206" y="1879.4471794871795" width="175.62264150943392" height="103.07692307692308" as="geometry" />
        </mxCell>
        <mxCell id="ZRxdG0ryZlhFscVbbjT4-194" value="Stock Desc" style="ellipse;whiteSpace=wrap;html=1;align=center;" vertex="1" parent="wojboqunz96ooFiyqucH-1">
          <mxGeometry x="2265.28" y="1745.3189743589746" width="135.0943396226415" height="68.7179487179487" as="geometry" />
        </mxCell>
        <mxCell id="ZRxdG0ryZlhFscVbbjT4-195" value="&lt;u&gt;STock ID&lt;/u&gt;" style="ellipse;whiteSpace=wrap;html=1;align=center;" vertex="1" parent="wojboqunz96ooFiyqucH-1">
          <mxGeometry x="2485.0032075471695" y="1743.457435897436" width="135.0943396226415" height="68.7179487179487" as="geometry" />
        </mxCell>
        <mxCell id="ZRxdG0ryZlhFscVbbjT4-198" value="" style="endArrow=none;html=1;rounded=0;fontSize=16;exitX=0.392;exitY=0.029;exitDx=0;exitDy=0;entryX=0.5;entryY=1;entryDx=0;entryDy=0;exitPerimeter=0;" edge="1" parent="wojboqunz96ooFiyqucH-1" source="ZRxdG0ryZlhFscVbbjT4-193" target="ZRxdG0ryZlhFscVbbjT4-194">
          <mxGeometry relative="1" as="geometry">
            <mxPoint x="5420.259433962265" y="7213.531794871796" as="sourcePoint" />
            <mxPoint x="5271.655660377359" y="7007.377948717949" as="targetPoint" />
          </mxGeometry>
        </mxCell>
        <mxCell id="ZRxdG0ryZlhFscVbbjT4-199" value="" style="endArrow=none;html=1;rounded=0;fontSize=16;exitX=0.75;exitY=0;exitDx=0;exitDy=0;entryX=0.5;entryY=1;entryDx=0;entryDy=0;" edge="1" parent="wojboqunz96ooFiyqucH-1" source="ZRxdG0ryZlhFscVbbjT4-193" target="ZRxdG0ryZlhFscVbbjT4-195">
          <mxGeometry relative="1" as="geometry">
            <mxPoint x="5433.768867924528" y="7230.711282051283" as="sourcePoint" />
            <mxPoint x="5285.165094339623" y="7024.557435897436" as="targetPoint" />
          </mxGeometry>
        </mxCell>
        <mxCell id="ZRxdG0ryZlhFscVbbjT4-200" value="M" style="text;html=1;align=center;verticalAlign=middle;resizable=0;points=[];autosize=1;strokeColor=none;fillColor=none;" vertex="1" parent="wojboqunz96ooFiyqucH-1">
          <mxGeometry x="2317.8258490566036" y="1905.8333333333335" width="30" height="20" as="geometry" />
        </mxCell>
        <mxCell id="ZRxdG0ryZlhFscVbbjT4-207" value="" style="endArrow=none;html=1;rounded=0;fontSize=16;exitX=0.5;exitY=0;exitDx=0;exitDy=0;entryX=0.75;entryY=1;entryDx=0;entryDy=0;" edge="1" parent="wojboqunz96ooFiyqucH-1" source="ZRxdG0ryZlhFscVbbjT4-212" target="ZRxdG0ryZlhFscVbbjT4-193">
          <mxGeometry relative="1" as="geometry">
            <mxPoint x="3767.868981132075" y="3866.9492820512814" as="sourcePoint" />
            <mxPoint x="4669.79037735849" y="5564.835384615385" as="targetPoint" />
          </mxGeometry>
        </mxCell>
        <mxCell id="ZRxdG0ryZlhFscVbbjT4-212" value="&lt;div&gt;Amount&lt;/div&gt;" style="ellipse;whiteSpace=wrap;html=1;align=center;" vertex="1" parent="wojboqunz96ooFiyqucH-1">
          <mxGeometry x="2456.83" y="2034.6789743589745" width="135.0943396226415" height="68.7179487179487" as="geometry" />
        </mxCell>
        <mxCell id="ZRxdG0ryZlhFscVbbjT4-214" value="" style="endArrow=none;html=1;rounded=0;fontSize=16;exitX=0;exitY=0.25;exitDx=0;exitDy=0;entryX=1;entryY=0.5;entryDx=0;entryDy=0;" edge="1" parent="wojboqunz96ooFiyqucH-1" source="ZRxdG0ryZlhFscVbbjT4-193" target="ZRxdG0ryZlhFscVbbjT4-217">
          <mxGeometry relative="1" as="geometry">
            <mxPoint x="3227.7698113207534" y="3744.32717948718" as="sourcePoint" />
            <mxPoint x="2259.999622641509" y="1797.680769230769" as="targetPoint" />
          </mxGeometry>
        </mxCell>
        <mxCell id="ZRxdG0ryZlhFscVbbjT4-217" value="&lt;font style=&quot;font-size: 18px;&quot;&gt;UPDATE&lt;/font&gt;" style="shape=rhombus;perimeter=rhombusPerimeter;whiteSpace=wrap;html=1;align=center;" vertex="1" parent="wojboqunz96ooFiyqucH-1">
          <mxGeometry x="2070.003018867925" y="1754.6038461538458" width="162.1132075471698" height="103.07692307692308" as="geometry" />
        </mxCell>
        <mxCell id="ZRxdG0ryZlhFscVbbjT4-218" value="" style="endArrow=none;html=1;rounded=0;fontSize=16;exitX=1.022;exitY=0.348;exitDx=0;exitDy=0;entryX=0;entryY=0.5;entryDx=0;entryDy=0;exitPerimeter=0;" edge="1" parent="wojboqunz96ooFiyqucH-1" source="ZRxdG0ryZlhFscVbbjT4-3" target="ZRxdG0ryZlhFscVbbjT4-217">
          <mxGeometry relative="1" as="geometry">
            <mxPoint x="1749.9998113207544" y="1809.584871794872" as="sourcePoint" />
            <mxPoint x="1953.7296171150142" y="1980.6411702214295" as="targetPoint" />
            <Array as="points" />
          </mxGeometry>
        </mxCell>
        <mxCell id="ZRxdG0ryZlhFscVbbjT4-219" value="" style="endArrow=none;html=1;rounded=0;fontSize=16;exitX=0.5;exitY=0;exitDx=0;exitDy=0;entryX=0.5;entryY=1;entryDx=0;entryDy=0;" edge="1" parent="wojboqunz96ooFiyqucH-1" source="ZRxdG0ryZlhFscVbbjT4-217" target="HGoTmEdLcFwjstujymGU-615">
          <mxGeometry relative="1" as="geometry">
            <mxPoint x="1670.013509433962" y="1959.997948717948" as="sourcePoint" />
            <mxPoint x="2080.0030188679248" y="1816.142307692307" as="targetPoint" />
            <Array as="points" />
          </mxGeometry>
        </mxCell>
        <mxCell id="7mZElqCdtzCGHnQOhd71-292" style="edgeStyle=orthogonalEdgeStyle;rounded=0;orthogonalLoop=1;jettySize=auto;html=1;endArrow=none;endFill=0;entryX=0;entryY=0.5;entryDx=0;entryDy=0;" parent="1" source="7mZElqCdtzCGHnQOhd71-291" target="7mZElqCdtzCGHnQOhd71-1" edge="1">
          <mxGeometry relative="1" as="geometry">
            <mxPoint x="-990" y="-561.9002564102566" as="targetPoint" />
          </mxGeometry>
        </mxCell>
        <mxCell id="7mZElqCdtzCGHnQOhd71-324" style="edgeStyle=orthogonalEdgeStyle;rounded=0;orthogonalLoop=1;jettySize=auto;html=1;entryX=1;entryY=0.5;entryDx=0;entryDy=0;endArrow=none;endFill=0;" parent="1" source="7mZElqCdtzCGHnQOhd71-291" target="7mZElqCdtzCGHnQOhd71-323" edge="1">
          <mxGeometry relative="1" as="geometry">
            <Array as="points">
              <mxPoint x="-1360" y="-238" />
            </Array>
          </mxGeometry>
        </mxCell>
        <mxCell id="7mZElqCdtzCGHnQOhd71-291" value="Customer" style="whiteSpace=wrap;html=1;align=center;" parent="1" vertex="1">
          <mxGeometry x="-1420.004716981132" y="-610.0028205128206" width="243.1698113207547" height="96.20512820512819" as="geometry" />
        </mxCell>
        <mxCell id="7mZElqCdtzCGHnQOhd71-294" value="Business registration no" style="ellipse;whiteSpace=wrap;html=1;align=center;" parent="1" vertex="1">
          <mxGeometry x="-1700" y="-800" width="155.09" height="77.44" as="geometry" />
        </mxCell>
        <mxCell id="7mZElqCdtzCGHnQOhd71-296" value="Hotlines" style="ellipse;whiteSpace=wrap;html=1;align=center;" parent="1" vertex="1">
          <mxGeometry x="-1680.0015094339624" y="-479.99538461538475" width="135.0943396226415" height="68.7179487179487" as="geometry" />
        </mxCell>
        <mxCell id="7mZElqCdtzCGHnQOhd71-299" value=" Parent customer" style="ellipse;whiteSpace=wrap;html=1;align=center;" parent="1" vertex="1">
          <mxGeometry x="-1544.9115094339625" y="-424.99538461538475" width="135.0943396226415" height="68.7179487179487" as="geometry" />
        </mxCell>
        <mxCell id="7mZElqCdtzCGHnQOhd71-332" style="edgeStyle=orthogonalEdgeStyle;rounded=0;orthogonalLoop=1;jettySize=auto;html=1;entryX=0.25;entryY=0;entryDx=0;entryDy=0;endArrow=none;endFill=0;exitX=0.5;exitY=1;exitDx=0;exitDy=0;" parent="1" source="7mZElqCdtzCGHnQOhd71-300" target="7mZElqCdtzCGHnQOhd71-322" edge="1">
          <mxGeometry relative="1" as="geometry">
            <mxPoint x="-1918.6043396226416" y="-261.2774358974357" as="sourcePoint" />
          </mxGeometry>
        </mxCell>
        <mxCell id="7mZElqCdtzCGHnQOhd71-300" value="Contact Number" style="ellipse;whiteSpace=wrap;html=1;align=center;" parent="1" vertex="1">
          <mxGeometry x="-2005.0815094339623" y="-332.81538461538474" width="135.0943396226415" height="68.7179487179487" as="geometry" />
        </mxCell>
        <mxCell id="7mZElqCdtzCGHnQOhd71-302" value="FirstName" style="ellipse;whiteSpace=wrap;html=1;align=center;" parent="1" vertex="1">
          <mxGeometry x="-1400.0015094339624" y="-889.9953846153848" width="135.0943396226415" height="68.7179487179487" as="geometry" />
        </mxCell>
        <mxCell id="7mZElqCdtzCGHnQOhd71-303" value="LastName" style="ellipse;whiteSpace=wrap;html=1;align=center;" parent="1" vertex="1">
          <mxGeometry x="-1555.0949056603774" y="-854.0979487179487" width="135.0943396226415" height="68.7179487179487" as="geometry" />
        </mxCell>
        <mxCell id="7mZElqCdtzCGHnQOhd71-304" value="Name" style="ellipse;whiteSpace=wrap;html=1;align=center;" parent="1" vertex="1">
          <mxGeometry x="-1431.1335849056604" y="-763.6153846153848" width="135.0943396226415" height="68.7179487179487" as="geometry" />
        </mxCell>
        <mxCell id="7mZElqCdtzCGHnQOhd71-305" value="" style="endArrow=none;html=1;rounded=0;fontSize=16;" parent="1" target="7mZElqCdtzCGHnQOhd71-304" edge="1">
          <mxGeometry relative="1" as="geometry">
            <mxPoint x="-1340" y="-820" as="sourcePoint" />
            <mxPoint x="-292.5298113207549" y="791.8974358974358" as="targetPoint" />
          </mxGeometry>
        </mxCell>
        <mxCell id="7mZElqCdtzCGHnQOhd71-306" value="" style="endArrow=none;html=1;rounded=0;fontSize=16;exitX=0.5;exitY=1;exitDx=0;exitDy=0;entryX=0.078;entryY=0.202;entryDx=0;entryDy=0;entryPerimeter=0;" parent="1" source="7mZElqCdtzCGHnQOhd71-303" target="7mZElqCdtzCGHnQOhd71-304" edge="1">
          <mxGeometry relative="1" as="geometry">
            <mxPoint x="-1403.6396292506754" y="-667.6569584178" as="sourcePoint" />
            <mxPoint x="-434.37886792452844" y="937.9230769230769" as="targetPoint" />
          </mxGeometry>
        </mxCell>
        <mxCell id="7mZElqCdtzCGHnQOhd71-307" value="" style="endArrow=none;html=1;rounded=0;fontSize=16;entryX=0.318;entryY=-0.009;entryDx=0;entryDy=0;entryPerimeter=0;" parent="1" target="7mZElqCdtzCGHnQOhd71-291" edge="1">
          <mxGeometry x="1" y="73" relative="1" as="geometry">
            <mxPoint x="-1356.1" y="-694.9" as="sourcePoint" />
            <mxPoint x="-1371.0770478342429" y="-638.2351556609602" as="targetPoint" />
            <mxPoint x="-70" y="54" as="offset" />
          </mxGeometry>
        </mxCell>
        <mxCell id="7mZElqCdtzCGHnQOhd71-308" value="Address" style="ellipse;whiteSpace=wrap;html=1;align=center;" parent="1" vertex="1">
          <mxGeometry x="-1717.995283018868" y="-610.0028205128206" width="135.0943396226415" height="68.7179487179487" as="geometry" />
        </mxCell>
        <mxCell id="7mZElqCdtzCGHnQOhd71-309" value="City" style="ellipse;whiteSpace=wrap;html=1;align=center;" parent="1" vertex="1">
          <mxGeometry x="-2030.0015094339624" y="-569.9953846153848" width="135.0943396226415" height="68.7179487179487" as="geometry" />
        </mxCell>
        <mxCell id="7mZElqCdtzCGHnQOhd71-310" value="AddressLine2" style="ellipse;whiteSpace=wrap;html=1;align=center;" parent="1" vertex="1">
          <mxGeometry x="-1979.998490566038" y="-681.2823076923077" width="135.0943396226415" height="68.7179487179487" as="geometry" />
        </mxCell>
        <mxCell id="7mZElqCdtzCGHnQOhd71-311" value="AddressLine1" style="ellipse;whiteSpace=wrap;html=1;align=center;" parent="1" vertex="1">
          <mxGeometry x="-1869.9998113207548" y="-759.9997435897437" width="135.0943396226415" height="68.7179487179487" as="geometry" />
        </mxCell>
        <mxCell id="7mZElqCdtzCGHnQOhd71-312" value="" style="endArrow=none;html=1;rounded=0;fontSize=16;exitX=1;exitY=0.5;exitDx=0;exitDy=0;entryX=0;entryY=1;entryDx=0;entryDy=0;" parent="1" source="7mZElqCdtzCGHnQOhd71-309" target="7mZElqCdtzCGHnQOhd71-308" edge="1">
          <mxGeometry relative="1" as="geometry">
            <mxPoint x="-1832.3915094339632" y="-543.0764102564102" as="sourcePoint" />
            <mxPoint x="-909.9386792452831" y="1416.1543589743587" as="targetPoint" />
          </mxGeometry>
        </mxCell>
        <mxCell id="7mZElqCdtzCGHnQOhd71-313" value="" style="endArrow=none;html=1;rounded=0;fontSize=16;exitX=1;exitY=0.5;exitDx=0;exitDy=0;" parent="1" source="7mZElqCdtzCGHnQOhd71-310" target="7mZElqCdtzCGHnQOhd71-308" edge="1">
          <mxGeometry relative="1" as="geometry">
            <mxPoint x="-788.3537735849056" y="986.6671794871793" as="sourcePoint" />
            <mxPoint x="-855.9009433962267" y="1295.8979487179486" as="targetPoint" />
          </mxGeometry>
        </mxCell>
        <mxCell id="7mZElqCdtzCGHnQOhd71-314" value="" style="endArrow=none;html=1;rounded=0;fontSize=16;exitX=1;exitY=1;exitDx=0;exitDy=0;entryX=0.5;entryY=0;entryDx=0;entryDy=0;" parent="1" source="7mZElqCdtzCGHnQOhd71-311" target="7mZElqCdtzCGHnQOhd71-308" edge="1">
          <mxGeometry relative="1" as="geometry">
            <mxPoint x="-1859.4103773584902" y="-714.8712820512823" as="sourcePoint" />
            <mxPoint x="-936.9575471698117" y="1244.3594871794871" as="targetPoint" />
          </mxGeometry>
        </mxCell>
        <mxCell id="7mZElqCdtzCGHnQOhd71-315" value="District" style="ellipse;whiteSpace=wrap;html=1;align=center;" parent="1" vertex="1">
          <mxGeometry x="-1869.9964150943397" y="-508.71743589743613" width="135.0943396226415" height="68.7179487179487" as="geometry" />
        </mxCell>
        <mxCell id="7mZElqCdtzCGHnQOhd71-316" value="" style="endArrow=none;html=1;rounded=0;fontSize=16;exitX=0.5;exitY=0;exitDx=0;exitDy=0;" parent="1" source="7mZElqCdtzCGHnQOhd71-315" edge="1">
          <mxGeometry relative="1" as="geometry">
            <mxPoint x="-828.8820754716985" y="1124.103076923077" as="sourcePoint" />
            <mxPoint x="-1650" y="-540" as="targetPoint" />
          </mxGeometry>
        </mxCell>
        <mxCell id="7mZElqCdtzCGHnQOhd71-317" value="" style="endArrow=none;html=1;rounded=0;fontSize=16;exitX=1;exitY=0.5;exitDx=0;exitDy=0;entryX=-0.005;entryY=0.398;entryDx=0;entryDy=0;entryPerimeter=0;" parent="1" source="7mZElqCdtzCGHnQOhd71-308" target="7mZElqCdtzCGHnQOhd71-291" edge="1">
          <mxGeometry relative="1" as="geometry">
            <mxPoint x="-1582.9009813206153" y="-632.8349391363597" as="sourcePoint" />
            <mxPoint x="-1479.0681132075474" y="-541.2828205128205" as="targetPoint" />
          </mxGeometry>
        </mxCell>
        <mxCell id="7mZElqCdtzCGHnQOhd71-319" value="" style="endArrow=none;html=1;rounded=0;fontSize=16;exitX=1;exitY=1;exitDx=0;exitDy=0;entryX=0;entryY=0;entryDx=0;entryDy=0;" parent="1" target="7mZElqCdtzCGHnQOhd71-291" edge="1">
          <mxGeometry relative="1" as="geometry">
            <mxPoint x="-1582.9009813206153" y="-730.0049391363598" as="sourcePoint" />
            <mxPoint x="-1479.0681132075474" y="-638.4528205128206" as="targetPoint" />
          </mxGeometry>
        </mxCell>
        <mxCell id="7mZElqCdtzCGHnQOhd71-320" value="" style="endArrow=none;html=1;rounded=0;fontSize=16;exitX=1;exitY=0;exitDx=0;exitDy=0;entryX=0;entryY=0.75;entryDx=0;entryDy=0;" parent="1" source="7mZElqCdtzCGHnQOhd71-296" target="7mZElqCdtzCGHnQOhd71-291" edge="1">
          <mxGeometry relative="1" as="geometry">
            <mxPoint x="-1562.9009813206153" y="-531.2749391363598" as="sourcePoint" />
            <mxPoint x="-1400.0047169811323" y="-411.27282051282054" as="targetPoint" />
          </mxGeometry>
        </mxCell>
        <mxCell id="7mZElqCdtzCGHnQOhd71-321" value="" style="endArrow=none;html=1;rounded=0;fontSize=16;exitX=0.693;exitY=0.024;exitDx=0;exitDy=0;entryX=0.132;entryY=1.005;entryDx=0;entryDy=0;entryPerimeter=0;exitPerimeter=0;" parent="1" source="7mZElqCdtzCGHnQOhd71-299" target="7mZElqCdtzCGHnQOhd71-291" edge="1">
          <mxGeometry relative="1" as="geometry">
            <mxPoint x="-1554.28267943383" y="-459.7222403508165" as="sourcePoint" />
            <mxPoint x="-1410.0047169811323" y="-527.8489743589741" as="targetPoint" />
          </mxGeometry>
        </mxCell>
        <mxCell id="7mZElqCdtzCGHnQOhd71-322" value="Employee" style="whiteSpace=wrap;html=1;align=center;" parent="1" vertex="1">
          <mxGeometry x="-1936.1547169811322" y="-150.00282051282056" width="243.1698113207547" height="96.20512820512819" as="geometry" />
        </mxCell>
        <mxCell id="7mZElqCdtzCGHnQOhd71-325" style="edgeStyle=orthogonalEdgeStyle;rounded=0;orthogonalLoop=1;jettySize=auto;html=1;exitX=0;exitY=0.5;exitDx=0;exitDy=0;entryX=1;entryY=0.5;entryDx=0;entryDy=0;endArrow=none;endFill=0;" parent="1" source="7mZElqCdtzCGHnQOhd71-323" target="7mZElqCdtzCGHnQOhd71-322" edge="1">
          <mxGeometry x="0.5175" y="53" relative="1" as="geometry">
            <mxPoint x="-1555.09037735849" y="-226.91923076923058" as="sourcePoint" />
            <Array as="points">
              <mxPoint x="-1630" y="-239" />
              <mxPoint x="-1630" y="-102" />
            </Array>
            <mxPoint x="11" y="-1" as="offset" />
          </mxGeometry>
        </mxCell>
        <mxCell id="7mZElqCdtzCGHnQOhd71-323" value="HAS" style="shape=rhombus;perimeter=rhombusPerimeter;whiteSpace=wrap;html=1;align=center;" parent="1" vertex="1">
          <mxGeometry x="-1568.6069811320754" y="-289.9961538461539" width="162.1132075471698" height="103.07692307692308" as="geometry" />
        </mxCell>
        <mxCell id="7mZElqCdtzCGHnQOhd71-329" style="edgeStyle=orthogonalEdgeStyle;rounded=0;orthogonalLoop=1;jettySize=auto;html=1;entryX=0.616;entryY=-0.003;entryDx=0;entryDy=0;entryPerimeter=0;endArrow=none;endFill=0;" parent="1" source="7mZElqCdtzCGHnQOhd71-326" target="7mZElqCdtzCGHnQOhd71-328" edge="1">
          <mxGeometry relative="1" as="geometry" />
        </mxCell>
        <mxCell id="7mZElqCdtzCGHnQOhd71-326" value="FirstName" style="ellipse;whiteSpace=wrap;html=1;align=center;" parent="1" vertex="1">
          <mxGeometry x="-2224.3315094339623" y="-299.99538461538475" width="135.0943396226415" height="68.7179487179487" as="geometry" />
        </mxCell>
        <mxCell id="7mZElqCdtzCGHnQOhd71-330" style="edgeStyle=orthogonalEdgeStyle;rounded=0;orthogonalLoop=1;jettySize=auto;html=1;entryX=0.053;entryY=0.303;entryDx=0;entryDy=0;entryPerimeter=0;endArrow=none;endFill=0;" parent="1" source="7mZElqCdtzCGHnQOhd71-327" target="7mZElqCdtzCGHnQOhd71-328" edge="1">
          <mxGeometry relative="1" as="geometry" />
        </mxCell>
        <mxCell id="7mZElqCdtzCGHnQOhd71-327" value="LastName" style="ellipse;whiteSpace=wrap;html=1;align=center;" parent="1" vertex="1">
          <mxGeometry x="-2379.4249056603776" y="-264.0979487179487" width="135.0943396226415" height="68.7179487179487" as="geometry" />
        </mxCell>
        <mxCell id="7mZElqCdtzCGHnQOhd71-331" style="edgeStyle=orthogonalEdgeStyle;rounded=0;orthogonalLoop=1;jettySize=auto;html=1;entryX=0;entryY=0.5;entryDx=0;entryDy=0;endArrow=none;endFill=0;" parent="1" source="7mZElqCdtzCGHnQOhd71-328" target="7mZElqCdtzCGHnQOhd71-322" edge="1">
          <mxGeometry relative="1" as="geometry" />
        </mxCell>
        <mxCell id="7mZElqCdtzCGHnQOhd71-328" value="Name" style="ellipse;whiteSpace=wrap;html=1;align=center;" parent="1" vertex="1">
          <mxGeometry x="-2255.4635849056604" y="-173.61538461538476" width="135.0943396226415" height="68.7179487179487" as="geometry" />
        </mxCell>
        <mxCell id="7mZElqCdtzCGHnQOhd71-334" style="edgeStyle=orthogonalEdgeStyle;rounded=0;orthogonalLoop=1;jettySize=auto;html=1;entryX=0.25;entryY=1;entryDx=0;entryDy=0;endArrow=none;endFill=0;" parent="1" source="7mZElqCdtzCGHnQOhd71-333" target="7mZElqCdtzCGHnQOhd71-322" edge="1">
          <mxGeometry relative="1" as="geometry" />
        </mxCell>
        <mxCell id="7mZElqCdtzCGHnQOhd71-333" value="Designation" style="ellipse;whiteSpace=wrap;html=1;align=center;" parent="1" vertex="1">
          <mxGeometry x="-2196.1515094339625" y="-49.99538461538475" width="135.0943396226415" height="68.7179487179487" as="geometry" />
        </mxCell>
        <mxCell id="7mZElqCdtzCGHnQOhd71-336" style="edgeStyle=orthogonalEdgeStyle;rounded=0;orthogonalLoop=1;jettySize=auto;html=1;endArrow=none;endFill=0;entryX=0.368;entryY=0.991;entryDx=0;entryDy=0;entryPerimeter=0;" parent="1" target="7mZElqCdtzCGHnQOhd71-322" edge="1">
          <mxGeometry relative="1" as="geometry">
            <mxPoint x="-1846.15" y="-60" as="targetPoint" />
            <mxPoint x="-1928.5988679245286" y="49.998974358974465" as="sourcePoint" />
          </mxGeometry>
        </mxCell>
        <mxCell id="7mZElqCdtzCGHnQOhd71-335" value="Email" style="ellipse;whiteSpace=wrap;html=1;align=center;" parent="1" vertex="1">
          <mxGeometry x="-2005.0860377358492" y="49.998974358974465" width="135.0943396226415" height="68.7179487179487" as="geometry" />
        </mxCell>
        <mxCell id="7mZElqCdtzCGHnQOhd71-342" style="edgeStyle=orthogonalEdgeStyle;rounded=0;orthogonalLoop=1;jettySize=auto;html=1;entryX=0;entryY=0.25;entryDx=0;entryDy=0;endArrow=none;endFill=0;exitX=0.5;exitY=0;exitDx=0;exitDy=0;" parent="1" source="7mZElqCdtzCGHnQOhd71-341" target="7mZElqCdtzCGHnQOhd71-339" edge="1">
          <mxGeometry relative="1" as="geometry" />
        </mxCell>
        <mxCell id="7mZElqCdtzCGHnQOhd71-341" value="Location Name" style="ellipse;whiteSpace=wrap;html=1;align=center;" parent="1" vertex="1">
          <mxGeometry x="-1431.1360377358494" y="-186.92102564102555" width="135.0943396226415" height="68.7179487179487" as="geometry" />
        </mxCell>
        <mxCell id="7mZElqCdtzCGHnQOhd71-344" style="edgeStyle=orthogonalEdgeStyle;rounded=0;orthogonalLoop=1;jettySize=auto;html=1;entryX=0;entryY=0.5;entryDx=0;entryDy=0;endArrow=none;endFill=0;" parent="1" source="7mZElqCdtzCGHnQOhd71-343" target="7mZElqCdtzCGHnQOhd71-339" edge="1">
          <mxGeometry relative="1" as="geometry">
            <Array as="points">
              <mxPoint x="-1290" y="-94" />
              <mxPoint x="-1290" y="-176" />
            </Array>
          </mxGeometry>
        </mxCell>
        <mxCell id="7mZElqCdtzCGHnQOhd71-343" value="Descrition" style="ellipse;whiteSpace=wrap;html=1;align=center;" parent="1" vertex="1">
          <mxGeometry x="-1470.0015094339624" y="-109.99538461538475" width="135.0943396226415" height="68.7179487179487" as="geometry" />
        </mxCell>
        <mxCell id="7mZElqCdtzCGHnQOhd71-345" value="Contact Number" style="ellipse;whiteSpace=wrap;html=1;align=center;" parent="1" vertex="1">
          <mxGeometry x="-1490.0015094339626" y="-29.99538461538475" width="135.0943396226415" height="68.7179487179487" as="geometry" />
        </mxCell>
        <mxCell id="HGoTmEdLcFwjstujymGU-1" value="Parent location" style="ellipse;whiteSpace=wrap;html=1;align=center;" parent="1" vertex="1">
          <mxGeometry x="-1354.9115094339625" y="0.004615384615249241" width="135.0943396226415" height="68.7179487179487" as="geometry" />
        </mxCell>
        <mxCell id="HGoTmEdLcFwjstujymGU-4" value="" style="endArrow=none;html=1;rounded=0;entryX=0.029;entryY=0.998;entryDx=0;entryDy=0;entryPerimeter=0;exitX=0.609;exitY=-0.006;exitDx=0;exitDy=0;exitPerimeter=0;" parent="1" source="7mZElqCdtzCGHnQOhd71-345" target="7mZElqCdtzCGHnQOhd71-339" edge="1">
          <mxGeometry x="0.0525" y="20" width="50" height="50" relative="1" as="geometry">
            <mxPoint x="-1290" y="110" as="sourcePoint" />
            <mxPoint x="-1130" y="-50" as="targetPoint" />
            <Array as="points">
              <mxPoint x="-1310" y="-30" />
            </Array>
            <mxPoint as="offset" />
          </mxGeometry>
        </mxCell>
        <mxCell id="HGoTmEdLcFwjstujymGU-7" style="edgeStyle=orthogonalEdgeStyle;rounded=0;orthogonalLoop=1;jettySize=auto;html=1;endArrow=none;endFill=0;exitX=0.5;exitY=0;exitDx=0;exitDy=0;entryX=0.087;entryY=0.989;entryDx=0;entryDy=0;entryPerimeter=0;" parent="1" source="HGoTmEdLcFwjstujymGU-1" edge="1" target="7mZElqCdtzCGHnQOhd71-339">
          <mxGeometry relative="1" as="geometry">
            <mxPoint x="-1304.9071960010897" y="74.33333333333348" as="sourcePoint" />
            <mxPoint x="-1200" y="-127" as="targetPoint" />
            <Array as="points">
              <mxPoint x="-1270" />
              <mxPoint x="-1270" y="-15" />
              <mxPoint x="-1069" y="-15" />
            </Array>
          </mxGeometry>
        </mxCell>
        <mxCell id="HGoTmEdLcFwjstujymGU-161" value="Address" style="ellipse;whiteSpace=wrap;html=1;align=center;" parent="1" vertex="1">
          <mxGeometry x="-1279.995283018868" y="159.99717948717944" width="135.0943396226415" height="68.7179487179487" as="geometry" />
        </mxCell>
        <mxCell id="HGoTmEdLcFwjstujymGU-162" value="District" style="ellipse;whiteSpace=wrap;html=1;align=center;" parent="1" vertex="1">
          <mxGeometry x="-1439.9964150943397" y="268.72256410256387" width="135.0943396226415" height="68.7179487179487" as="geometry" />
        </mxCell>
        <mxCell id="HGoTmEdLcFwjstujymGU-163" value="City" style="ellipse;whiteSpace=wrap;html=1;align=center;direction=west;points=[[0,0.49,0,0,0],[0.15,0.15,0,0,0],[0.15,0.86,0,0,0],[0.5,0,0,0,0],[0.5,1,0,0,0],[0.85,0.15,0,0,0],[0.85,0.86,0,0,0],[1,0.49,0,0,0]];" parent="1" vertex="1">
          <mxGeometry x="-1600.0015094339624" y="207.4446153846153" width="135.0943396226415" height="68.7179487179487" as="geometry" />
        </mxCell>
        <mxCell id="HGoTmEdLcFwjstujymGU-165" style="edgeStyle=orthogonalEdgeStyle;rounded=0;orthogonalLoop=1;jettySize=auto;html=1;exitX=0.043;exitY=0.312;exitDx=0;exitDy=0;entryX=0.312;entryY=1.004;entryDx=0;entryDy=0;endArrow=none;endFill=0;entryPerimeter=0;exitPerimeter=0;" parent="1" source="HGoTmEdLcFwjstujymGU-161" target="HGoTmEdLcFwjstujymGU-163" edge="1">
          <mxGeometry relative="1" as="geometry">
            <mxPoint x="-1399.9969811320752" y="70.88230769230705" as="sourcePoint" />
            <mxPoint x="-1524.374905660377" y="207.43974358974293" as="targetPoint" />
          </mxGeometry>
        </mxCell>
        <mxCell id="HGoTmEdLcFwjstujymGU-166" style="edgeStyle=orthogonalEdgeStyle;rounded=0;orthogonalLoop=1;jettySize=auto;html=1;exitX=0.012;exitY=0.644;exitDx=0;exitDy=0;entryX=0.5;entryY=0;entryDx=0;entryDy=0;endArrow=none;endFill=0;exitPerimeter=0;" parent="1" source="HGoTmEdLcFwjstujymGU-161" target="HGoTmEdLcFwjstujymGU-162" edge="1">
          <mxGeometry x="1" y="230" relative="1" as="geometry">
            <mxPoint x="-1270.2569811320755" y="132.16230769230708" as="sourcePoint" />
            <mxPoint x="-1394.6349056603772" y="268.71974358974296" as="targetPoint" />
            <mxPoint x="-57" y="152" as="offset" />
          </mxGeometry>
        </mxCell>
        <mxCell id="HGoTmEdLcFwjstujymGU-169" style="edgeStyle=orthogonalEdgeStyle;rounded=0;orthogonalLoop=1;jettySize=auto;html=1;exitX=0.5;exitY=1;exitDx=0;exitDy=0;entryX=0.303;entryY=0.019;entryDx=0;entryDy=0;endArrow=none;endFill=0;entryPerimeter=0;" parent="1" source="HGoTmEdLcFwjstujymGU-161" target="HGoTmEdLcFwjstujymGU-167" edge="1">
          <mxGeometry x="1" y="230" relative="1" as="geometry">
            <mxPoint x="-1268.3741509433962" y="214.25153846153808" as="sourcePoint" />
            <mxPoint x="-1362.4492452830186" y="278.7225641025634" as="targetPoint" />
            <mxPoint x="-57" y="152" as="offset" />
          </mxGeometry>
        </mxCell>
        <mxCell id="HGoTmEdLcFwjstujymGU-170" style="edgeStyle=orthogonalEdgeStyle;rounded=0;orthogonalLoop=1;jettySize=auto;html=1;exitX=1;exitY=1;exitDx=0;exitDy=0;entryX=0.5;entryY=0;entryDx=0;entryDy=0;endArrow=none;endFill=0;" parent="1" source="HGoTmEdLcFwjstujymGU-161" target="HGoTmEdLcFwjstujymGU-168" edge="1">
          <mxGeometry x="1" y="230" relative="1" as="geometry">
            <mxPoint x="-1258.3741509433962" y="224.25153846153808" as="sourcePoint" />
            <mxPoint x="-1352.4492452830186" y="288.7225641025634" as="targetPoint" />
            <mxPoint x="-57" y="152" as="offset" />
            <Array as="points">
              <mxPoint x="-1165" y="230" />
              <mxPoint x="-1098" y="230" />
            </Array>
          </mxGeometry>
        </mxCell>
        <mxCell id="HGoTmEdLcFwjstujymGU-171" style="edgeStyle=orthogonalEdgeStyle;rounded=0;orthogonalLoop=1;jettySize=auto;html=1;entryX=0.319;entryY=0.999;entryDx=0;entryDy=0;endArrow=none;endFill=0;entryPerimeter=0;exitX=0.583;exitY=-0.062;exitDx=0;exitDy=0;exitPerimeter=0;" parent="1" source="HGoTmEdLcFwjstujymGU-161" target="7mZElqCdtzCGHnQOhd71-339" edge="1">
          <mxGeometry x="1" y="230" relative="1" as="geometry">
            <mxPoint x="-1212" y="170" as="sourcePoint" />
            <mxPoint x="-1342.4492452830186" y="298.7225641025634" as="targetPoint" />
            <mxPoint x="-57" y="152" as="offset" />
          </mxGeometry>
        </mxCell>
        <mxCell id="HGoTmEdLcFwjstujymGU-191" value="Invoice For" style="ellipse;whiteSpace=wrap;html=1;align=center;" parent="1" vertex="1">
          <mxGeometry x="-786.0435849056603" y="367.38461538461524" width="135.0943396226415" height="68.7179487179487" as="geometry" />
        </mxCell>
        <mxCell id="HGoTmEdLcFwjstujymGU-193" value="Template" style="ellipse;whiteSpace=wrap;html=1;align=center;" parent="1" vertex="1">
          <mxGeometry x="-760.0015094339624" y="470.00461538461525" width="135.0943396226415" height="68.7179487179487" as="geometry" />
        </mxCell>
        <mxCell id="HGoTmEdLcFwjstujymGU-195" value="Collection Vehicle Provide By" style="ellipse;whiteSpace=wrap;html=1;align=center;" parent="1" vertex="1">
          <mxGeometry x="-669.9960377358492" y="549.9989743589745" width="135.0943396226415" height="68.7179487179487" as="geometry" />
        </mxCell>
        <mxCell id="HGoTmEdLcFwjstujymGU-206" value="Dilivery Vehicle Provide By" style="ellipse;whiteSpace=wrap;html=1;align=center;" parent="1" vertex="1">
          <mxGeometry x="-499.9960377358492" y="619.9989743589745" width="135.0943396226415" height="68.7179487179487" as="geometry" />
        </mxCell>
        <mxCell id="HGoTmEdLcFwjstujymGU-207" value="Loading By" style="ellipse;whiteSpace=wrap;html=1;align=center;" parent="1" vertex="1">
          <mxGeometry x="-224.90603773584914" y="521.2789743589744" width="135.0943396226415" height="68.7179487179487" as="geometry" />
        </mxCell>
        <mxCell id="HGoTmEdLcFwjstujymGU-208" value="Counting By" style="ellipse;whiteSpace=wrap;html=1;align=center;" parent="1" vertex="1">
          <mxGeometry x="-359.99603773584914" y="579.9989743589745" width="135.0943396226415" height="68.7179487179487" as="geometry" />
        </mxCell>
        <mxCell id="HGoTmEdLcFwjstujymGU-209" style="edgeStyle=orthogonalEdgeStyle;rounded=0;orthogonalLoop=1;jettySize=auto;html=1;exitX=0;exitY=1;exitDx=0;exitDy=0;entryX=0.5;entryY=0;entryDx=0;entryDy=0;endArrow=none;endFill=0;" parent="1" source="HGoTmEdLcFwjstujymGU-185" target="HGoTmEdLcFwjstujymGU-206" edge="1">
          <mxGeometry x="1" y="230" relative="1" as="geometry">
            <mxPoint x="-509.9956603773583" y="399.3087179487173" as="sourcePoint" />
            <mxPoint x="-419.6147169811314" y="579.9471794871799" as="targetPoint" />
            <mxPoint x="-57" y="152" as="offset" />
            <Array as="points">
              <mxPoint x="-440" y="326" />
              <mxPoint x="-440" y="620" />
            </Array>
          </mxGeometry>
        </mxCell>
        <mxCell id="HGoTmEdLcFwjstujymGU-211" style="edgeStyle=orthogonalEdgeStyle;rounded=0;orthogonalLoop=1;jettySize=auto;html=1;entryX=0;entryY=0.5;entryDx=0;entryDy=0;endArrow=none;endFill=0;exitX=1;exitY=0.5;exitDx=0;exitDy=0;" parent="1" source="HGoTmEdLcFwjstujymGU-191" target="HGoTmEdLcFwjstujymGU-185" edge="1">
          <mxGeometry x="1" y="230" relative="1" as="geometry">
            <mxPoint x="-643.998113207547" y="370.00512820512836" as="sourcePoint" />
            <mxPoint x="-549.9373584905659" y="418.43512820512865" as="targetPoint" />
            <mxPoint x="-57" y="152" as="offset" />
          </mxGeometry>
        </mxCell>
        <mxCell id="HGoTmEdLcFwjstujymGU-212" style="edgeStyle=orthogonalEdgeStyle;rounded=0;orthogonalLoop=1;jettySize=auto;html=1;entryX=0;entryY=0.75;entryDx=0;entryDy=0;endArrow=none;endFill=0;exitX=1;exitY=0.5;exitDx=0;exitDy=0;" parent="1" source="HGoTmEdLcFwjstujymGU-193" target="HGoTmEdLcFwjstujymGU-185" edge="1">
          <mxGeometry x="1" y="230" relative="1" as="geometry">
            <mxPoint x="-630" y="500" as="sourcePoint" />
            <mxPoint x="-534.9373584905659" y="508.4351282051285" as="targetPoint" />
            <mxPoint x="-57" y="152" as="offset" />
          </mxGeometry>
        </mxCell>
        <mxCell id="HGoTmEdLcFwjstujymGU-213" style="edgeStyle=orthogonalEdgeStyle;rounded=0;orthogonalLoop=1;jettySize=auto;html=1;entryX=0.5;entryY=0;entryDx=0;entryDy=0;endArrow=none;endFill=0;exitX=0.148;exitY=0.991;exitDx=0;exitDy=0;exitPerimeter=0;" parent="1" source="HGoTmEdLcFwjstujymGU-185" target="HGoTmEdLcFwjstujymGU-208" edge="1">
          <mxGeometry x="1" y="230" relative="1" as="geometry">
            <mxPoint x="-419.9981132075471" y="460.00512820512864" as="sourcePoint" />
            <mxPoint x="-325.93735849056594" y="508.4351282051285" as="targetPoint" />
            <mxPoint x="-57" y="152" as="offset" />
          </mxGeometry>
        </mxCell>
        <mxCell id="HGoTmEdLcFwjstujymGU-214" style="edgeStyle=orthogonalEdgeStyle;rounded=0;orthogonalLoop=1;jettySize=auto;html=1;endArrow=none;endFill=0;exitX=0.75;exitY=1;exitDx=0;exitDy=0;" parent="1" source="HGoTmEdLcFwjstujymGU-185" target="HGoTmEdLcFwjstujymGU-207" edge="1">
          <mxGeometry x="1" y="230" relative="1" as="geometry">
            <mxPoint x="-299.998113207547" y="410.00512820512864" as="sourcePoint" />
            <mxPoint x="-205.93735849056588" y="458.4351282051285" as="targetPoint" />
            <mxPoint x="-57" y="152" as="offset" />
            <Array as="points">
              <mxPoint x="-157" y="326" />
            </Array>
          </mxGeometry>
        </mxCell>
        <mxCell id="HGoTmEdLcFwjstujymGU-215" value="&lt;u&gt;Agreement ID&lt;br&gt;&lt;/u&gt;" style="ellipse;whiteSpace=wrap;html=1;align=center;" parent="1" vertex="1">
          <mxGeometry x="-119.99603773584914" y="409.99897435897446" width="135.0943396226415" height="68.7179487179487" as="geometry" />
        </mxCell>
        <mxCell id="HGoTmEdLcFwjstujymGU-218" style="edgeStyle=orthogonalEdgeStyle;rounded=0;orthogonalLoop=1;jettySize=auto;html=1;entryX=0.57;entryY=-0.034;entryDx=0;entryDy=0;endArrow=none;endFill=0;exitX=1;exitY=0.75;exitDx=0;exitDy=0;entryPerimeter=0;" parent="1" source="HGoTmEdLcFwjstujymGU-185" target="HGoTmEdLcFwjstujymGU-215" edge="1">
          <mxGeometry x="1" y="230" relative="1" as="geometry">
            <mxPoint x="-164.33716981131988" y="371.57358974359" as="sourcePoint" />
            <mxPoint x="-27.994716981131432" y="218.72102564102624" as="targetPoint" />
            <mxPoint x="-57" y="152" as="offset" />
          </mxGeometry>
        </mxCell>
        <mxCell id="7mZElqCdtzCGHnQOhd71-338" style="edgeStyle=orthogonalEdgeStyle;rounded=0;orthogonalLoop=1;jettySize=auto;html=1;endArrow=none;endFill=0;entryX=0.5;entryY=1;entryDx=0;entryDy=0;exitX=0.5;exitY=0;exitDx=0;exitDy=0;" parent="1" source="7mZElqCdtzCGHnQOhd71-337" target="7mZElqCdtzCGHnQOhd71-291" edge="1">
          <mxGeometry relative="1" as="geometry">
            <Array as="points">
              <mxPoint x="-1118" y="-400" />
              <mxPoint x="-1118" y="-480" />
              <mxPoint x="-1298" y="-480" />
            </Array>
          </mxGeometry>
        </mxCell>
        <mxCell id="HGoTmEdLcFwjstujymGU-224" value="&lt;u&gt;EMP_ID&lt;/u&gt;" style="ellipse;whiteSpace=wrap;html=1;align=center;" parent="1" vertex="1">
          <mxGeometry x="-1853.0860377358492" y="49.998974358974465" width="135.0943396226415" height="68.7179487179487" as="geometry" />
        </mxCell>
        <mxCell id="HGoTmEdLcFwjstujymGU-225" style="edgeStyle=orthogonalEdgeStyle;rounded=0;orthogonalLoop=1;jettySize=auto;html=1;endArrow=none;endFill=0;entryX=0.5;entryY=1;entryDx=0;entryDy=0;exitX=0.5;exitY=0;exitDx=0;exitDy=0;" parent="1" source="HGoTmEdLcFwjstujymGU-224" target="7mZElqCdtzCGHnQOhd71-322" edge="1">
          <mxGeometry relative="1" as="geometry">
            <mxPoint x="-1836.6682264150945" y="-44.66353846153879" as="targetPoint" />
            <mxPoint x="-1918.5988679245288" y="59.998974358974465" as="sourcePoint" />
          </mxGeometry>
        </mxCell>
        <mxCell id="HGoTmEdLcFwjstujymGU-227" value="&lt;font style=&quot;font-size: 18px;&quot;&gt;&lt;u&gt;ID&lt;/u&gt;&lt;/font&gt;" style="ellipse;whiteSpace=wrap;html=1;align=center;" parent="1" vertex="1">
          <mxGeometry x="-1279.9960377358493" y="-791.2810256410255" width="135.0943396226415" height="68.7179487179487" as="geometry" />
        </mxCell>
        <mxCell id="HGoTmEdLcFwjstujymGU-228" value="" style="endArrow=none;html=1;rounded=0;fontSize=16;entryX=0.75;entryY=0;entryDx=0;entryDy=0;exitX=0.313;exitY=0.965;exitDx=0;exitDy=0;exitPerimeter=0;" parent="1" source="HGoTmEdLcFwjstujymGU-227" target="7mZElqCdtzCGHnQOhd71-291" edge="1">
          <mxGeometry x="1" y="73" relative="1" as="geometry">
            <mxPoint x="-1346.1" y="-684.9000000000001" as="sourcePoint" />
            <mxPoint x="-1332.676716981132" y="-600.8686666666667" as="targetPoint" />
            <mxPoint x="-70" y="54" as="offset" />
          </mxGeometry>
        </mxCell>
        <mxCell id="HGoTmEdLcFwjstujymGU-229" value="&lt;font style=&quot;font-size: 24px;&quot;&gt;Whole ITEM&lt;/font&gt;" style="whiteSpace=wrap;html=1;align=center;" parent="1" vertex="1">
          <mxGeometry x="-1268.8647169811322" y="-1468.5228205128205" width="243.1698113207547" height="96.20512820512819" as="geometry" />
        </mxCell>
        <mxCell id="HGoTmEdLcFwjstujymGU-397" value="Color" style="ellipse;whiteSpace=wrap;html=1;align=center;" parent="1" vertex="1">
          <mxGeometry x="-1199.4815094339624" y="-1796.415384615385" width="135.0943396226415" height="68.7179487179487" as="geometry" />
        </mxCell>
        <mxCell id="HGoTmEdLcFwjstujymGU-407" value="Avg_Waight" style="ellipse;whiteSpace=wrap;html=1;align=center;" parent="1" vertex="1">
          <mxGeometry x="-1119.0315094339624" y="-1715.9053846153847" width="135.0943396226415" height="68.7179487179487" as="geometry" />
        </mxCell>
        <mxCell id="HGoTmEdLcFwjstujymGU-408" value="Related_Test" style="ellipse;whiteSpace=wrap;html=1;align=center;" parent="1" vertex="1">
          <mxGeometry x="-1037.9749056603775" y="-1630.0079487179487" width="135.0943396226415" height="68.7179487179487" as="geometry" />
        </mxCell>
        <mxCell id="HGoTmEdLcFwjstujymGU-410" value="" style="endArrow=none;html=1;rounded=0;fontSize=16;exitX=0.327;exitY=0.993;exitDx=0;exitDy=0;entryX=0.75;entryY=0;entryDx=0;entryDy=0;exitPerimeter=0;" parent="1" source="HGoTmEdLcFwjstujymGU-407" target="HGoTmEdLcFwjstujymGU-229" edge="1">
          <mxGeometry relative="1" as="geometry">
            <mxPoint x="261.1571698113207" y="-34.62333333333322" as="sourcePoint" />
            <mxPoint x="308.440188679245" y="-60.392564102564165" as="targetPoint" />
          </mxGeometry>
        </mxCell>
        <mxCell id="HGoTmEdLcFwjstujymGU-411" value="" style="endArrow=none;html=1;rounded=0;fontSize=16;exitX=0;exitY=1;exitDx=0;exitDy=0;entryX=1;entryY=0;entryDx=0;entryDy=0;" parent="1" source="HGoTmEdLcFwjstujymGU-408" target="HGoTmEdLcFwjstujymGU-229" edge="1">
          <mxGeometry relative="1" as="geometry">
            <mxPoint x="99.04396226415065" y="102.81256410256401" as="sourcePoint" />
            <mxPoint x="166.59113207547148" y="85.63307692307694" as="targetPoint" />
          </mxGeometry>
        </mxCell>
        <mxCell id="HGoTmEdLcFwjstujymGU-396" value="" style="endArrow=none;html=1;rounded=0;fontSize=16;exitX=0.5;exitY=1;exitDx=0;exitDy=0;entryX=0.5;entryY=0;entryDx=0;entryDy=0;" parent="1" source="HGoTmEdLcFwjstujymGU-229" target="HGoTmEdLcFwjstujymGU-392" edge="1">
          <mxGeometry relative="1" as="geometry">
            <mxPoint x="-929.9971698113216" y="-1169.9964102564104" as="sourcePoint" />
            <mxPoint x="-896.223584905659" y="-1169.9964102564104" as="targetPoint" />
          </mxGeometry>
        </mxCell>
        <mxCell id="HGoTmEdLcFwjstujymGU-398" value="&lt;u&gt;Item_Code&lt;/u&gt;" style="ellipse;whiteSpace=wrap;html=1;align=center;" parent="1" vertex="1">
          <mxGeometry x="-1490.0049056603777" y="-1784.6279487179488" width="135.0943396226415" height="68.7179487179487" as="geometry" />
        </mxCell>
        <mxCell id="HGoTmEdLcFwjstujymGU-399" value="Customer" style="ellipse;whiteSpace=wrap;html=1;align=center;" parent="1" vertex="1">
          <mxGeometry x="-1330.0035849056605" y="-1749.9953846153849" width="135.0943396226415" height="68.7179487179487" as="geometry" />
        </mxCell>
        <mxCell id="HGoTmEdLcFwjstujymGU-402" value="Desciption" style="ellipse;whiteSpace=wrap;html=1;align=center;" parent="1" vertex="1">
          <mxGeometry x="-1500.0015094339626" y="-1372.3153846153848" width="135.0943396226415" height="68.7179487179487" as="geometry" />
        </mxCell>
        <mxCell id="HGoTmEdLcFwjstujymGU-403" value="Name" style="ellipse;whiteSpace=wrap;html=1;align=center;" parent="1" vertex="1">
          <mxGeometry x="-1575.0949056603774" y="-1454.777948717949" width="135.0943396226415" height="68.7179487179487" as="geometry" />
        </mxCell>
        <mxCell id="HGoTmEdLcFwjstujymGU-404" value="Brand" style="ellipse;whiteSpace=wrap;html=1;align=center;" parent="1" vertex="1">
          <mxGeometry x="-1500.0035849056605" y="-1669.9953846153849" width="135.0943396226415" height="68.7179487179487" as="geometry" />
        </mxCell>
        <mxCell id="HGoTmEdLcFwjstujymGU-405" value="" style="endArrow=none;html=1;rounded=0;fontSize=16;exitX=1;exitY=0.5;exitDx=0;exitDy=0;entryX=0;entryY=0.75;entryDx=0;entryDy=0;" parent="1" source="HGoTmEdLcFwjstujymGU-402" target="HGoTmEdLcFwjstujymGU-229" edge="1">
          <mxGeometry relative="1" as="geometry">
            <mxPoint x="-454.0728301886792" y="163.5866666666667" as="sourcePoint" />
            <mxPoint x="-406.7898113207549" y="137.81743589743581" as="targetPoint" />
          </mxGeometry>
        </mxCell>
        <mxCell id="HGoTmEdLcFwjstujymGU-406" value="" style="endArrow=none;html=1;rounded=0;fontSize=16;exitX=1;exitY=0;exitDx=0;exitDy=0;" parent="1" source="HGoTmEdLcFwjstujymGU-403" edge="1">
          <mxGeometry relative="1" as="geometry">
            <mxPoint x="-616.1860377358493" y="301.022564102564" as="sourcePoint" />
            <mxPoint x="-1264.92" y="-1423.7" as="targetPoint" />
          </mxGeometry>
        </mxCell>
        <mxCell id="HGoTmEdLcFwjstujymGU-413" value="" style="endArrow=none;html=1;rounded=0;fontSize=16;exitX=0;exitY=0.5;exitDx=0;exitDy=0;entryX=1;entryY=0.25;entryDx=0;entryDy=0;" parent="1" source="HGoTmEdLcFwjstujymGU-409" target="HGoTmEdLcFwjstujymGU-229" edge="1">
          <mxGeometry relative="1" as="geometry">
            <mxPoint x="-1008.5993960378582" y="-1561.5631442645733" as="sourcePoint" />
            <mxPoint x="-1015.6949056603771" y="-1458.5228205128205" as="targetPoint" />
          </mxGeometry>
        </mxCell>
        <mxCell id="HGoTmEdLcFwjstujymGU-414" value="" style="endArrow=none;html=1;rounded=0;fontSize=16;exitX=1;exitY=0.75;exitDx=0;exitDy=0;entryX=0;entryY=0.5;entryDx=0;entryDy=0;" parent="1" source="HGoTmEdLcFwjstujymGU-229" target="HGoTmEdLcFwjstujymGU-412" edge="1">
          <mxGeometry relative="1" as="geometry">
            <mxPoint x="-966.3293960378583" y="-1406.4131442645732" as="sourcePoint" />
            <mxPoint x="-973.4249056603771" y="-1303.3728205128205" as="targetPoint" />
          </mxGeometry>
        </mxCell>
        <mxCell id="HGoTmEdLcFwjstujymGU-415" value="" style="endArrow=none;html=1;rounded=0;fontSize=16;exitX=0.5;exitY=1;exitDx=0;exitDy=0;entryX=0.571;entryY=-0.015;entryDx=0;entryDy=0;entryPerimeter=0;" parent="1" source="HGoTmEdLcFwjstujymGU-397" target="HGoTmEdLcFwjstujymGU-229" edge="1">
          <mxGeometry x="-0.3653" y="-142" relative="1" as="geometry">
            <mxPoint x="-1178.3656603773586" y="-1685.2184615384615" as="sourcePoint" />
            <mxPoint x="-1189.9973584905654" y="-1506.0728205128205" as="targetPoint" />
            <mxPoint as="offset" />
          </mxGeometry>
        </mxCell>
        <mxCell id="HGoTmEdLcFwjstujymGU-416" value="" style="endArrow=none;html=1;rounded=0;fontSize=16;exitX=0.672;exitY=0.98;exitDx=0;exitDy=0;entryX=0.5;entryY=0;entryDx=0;entryDy=0;exitPerimeter=0;" parent="1" source="HGoTmEdLcFwjstujymGU-399" target="HGoTmEdLcFwjstujymGU-229" edge="1">
          <mxGeometry relative="1" as="geometry">
            <mxPoint x="-1054.8556603773586" y="-1627.6684615384615" as="sourcePoint" />
            <mxPoint x="-1066.4873584905654" y="-1448.5228205128205" as="targetPoint" />
          </mxGeometry>
        </mxCell>
        <mxCell id="HGoTmEdLcFwjstujymGU-417" value="" style="endArrow=none;html=1;rounded=0;fontSize=16;exitX=1;exitY=1;exitDx=0;exitDy=0;entryX=0.25;entryY=0;entryDx=0;entryDy=0;" parent="1" source="HGoTmEdLcFwjstujymGU-398" target="HGoTmEdLcFwjstujymGU-229" edge="1">
          <mxGeometry relative="1" as="geometry">
            <mxPoint x="-1044.8556603773586" y="-1617.6684615384615" as="sourcePoint" />
            <mxPoint x="-1056.4873584905654" y="-1438.5228205128205" as="targetPoint" />
          </mxGeometry>
        </mxCell>
        <mxCell id="HGoTmEdLcFwjstujymGU-418" value="" style="endArrow=none;html=1;rounded=0;fontSize=16;exitX=1;exitY=0.5;exitDx=0;exitDy=0;entryX=0;entryY=0;entryDx=0;entryDy=0;" parent="1" source="HGoTmEdLcFwjstujymGU-404" target="HGoTmEdLcFwjstujymGU-229" edge="1">
          <mxGeometry relative="1" as="geometry">
            <mxPoint x="-1034.8556603773586" y="-1607.6684615384615" as="sourcePoint" />
            <mxPoint x="-1046.4873584905654" y="-1428.5228205128205" as="targetPoint" />
          </mxGeometry>
        </mxCell>
        <mxCell id="HGoTmEdLcFwjstujymGU-419" value="Other_Charges" style="ellipse;whiteSpace=wrap;html=1;align=center;" parent="1" vertex="1">
          <mxGeometry x="-1390.0035849056603" y="-1259.9953846153846" width="135.0943396226415" height="68.7179487179487" as="geometry" />
        </mxCell>
        <mxCell id="HGoTmEdLcFwjstujymGU-420" value="Gross_Amount" style="ellipse;whiteSpace=wrap;html=1;align=center;" parent="1" vertex="1">
          <mxGeometry x="-1245.0935849056605" y="-1289.9953846153846" width="135.0943396226415" height="68.7179487179487" as="geometry" />
        </mxCell>
        <mxCell id="HGoTmEdLcFwjstujymGU-421" value="" style="endArrow=none;html=1;rounded=0;fontSize=16;exitX=0.5;exitY=0;exitDx=0;exitDy=0;entryX=0.083;entryY=1.021;entryDx=0;entryDy=0;entryPerimeter=0;" parent="1" source="HGoTmEdLcFwjstujymGU-419" target="HGoTmEdLcFwjstujymGU-229" edge="1">
          <mxGeometry relative="1" as="geometry">
            <mxPoint x="-1466.3171698113078" y="-1323.3364102564105" as="sourcePoint" />
            <mxPoint x="-1258.8647169811316" y="-1386.3689743589744" as="targetPoint" />
          </mxGeometry>
        </mxCell>
        <mxCell id="HGoTmEdLcFwjstujymGU-422" value="" style="endArrow=none;html=1;rounded=0;fontSize=16;exitX=0.5;exitY=0;exitDx=0;exitDy=0;entryX=0.25;entryY=1;entryDx=0;entryDy=0;" parent="1" source="HGoTmEdLcFwjstujymGU-420" target="HGoTmEdLcFwjstujymGU-229" edge="1">
          <mxGeometry relative="1" as="geometry">
            <mxPoint x="-1456.3171698113078" y="-1313.3364102564105" as="sourcePoint" />
            <mxPoint x="-1248.8647169811316" y="-1376.3689743589744" as="targetPoint" />
          </mxGeometry>
        </mxCell>
        <mxCell id="HGoTmEdLcFwjstujymGU-424" value="" style="endArrow=none;html=1;rounded=0;fontSize=16;exitX=0.5;exitY=1;exitDx=0;exitDy=0;entryX=1;entryY=0.25;entryDx=0;entryDy=0;" parent="1" source="HGoTmEdLcFwjstujymGU-423" target="HGoTmEdLcFwjstujymGU-229" edge="1">
          <mxGeometry relative="1" as="geometry">
            <mxPoint x="-809.9935849056587" y="-1547.8364102564103" as="sourcePoint" />
            <mxPoint x="-1009.3849056603772" y="-1526.6715384615384" as="targetPoint" />
          </mxGeometry>
        </mxCell>
        <mxCell id="HGoTmEdLcFwjstujymGU-598" value="M" style="text;html=1;align=center;verticalAlign=middle;resizable=0;points=[];autosize=1;strokeColor=none;fillColor=none;" parent="1" vertex="1">
          <mxGeometry x="-1174.8971698113212" y="-589.9992307692308" width="30" height="20" as="geometry" />
        </mxCell>
        <mxCell id="HGoTmEdLcFwjstujymGU-599" value="1" style="text;html=1;align=center;verticalAlign=middle;resizable=0;points=[];autosize=1;strokeColor=none;fillColor=none;" parent="1" vertex="1">
          <mxGeometry x="-1288.8609433962265" y="-508.7187179487179" width="20" height="20" as="geometry" />
        </mxCell>
        <mxCell id="HGoTmEdLcFwjstujymGU-600" value="1" style="text;html=1;align=center;verticalAlign=middle;resizable=0;points=[];autosize=1;strokeColor=none;fillColor=none;" parent="1" vertex="1">
          <mxGeometry x="-1354.9109433962265" y="-508.7187179487179" width="20" height="20" as="geometry" />
        </mxCell>
        <mxCell id="HGoTmEdLcFwjstujymGU-601" value="&lt;font style=&quot;font-size: 18px;&quot;&gt;HAS&lt;/font&gt;" style="shape=rhombus;perimeter=rhombusPerimeter;whiteSpace=wrap;html=1;align=center;" parent="1" vertex="1">
          <mxGeometry x="-1689.9969811320752" y="-1601.2761538461539" width="162.1132075471698" height="103.07692307692308" as="geometry" />
        </mxCell>
        <mxCell id="HGoTmEdLcFwjstujymGU-602" value="" style="endArrow=none;html=1;rounded=0;fontSize=16;exitX=1;exitY=0.5;exitDx=0;exitDy=0;entryX=0;entryY=0.25;entryDx=0;entryDy=0;" parent="1" source="HGoTmEdLcFwjstujymGU-601" target="HGoTmEdLcFwjstujymGU-229" edge="1">
          <mxGeometry relative="1" as="geometry">
            <mxPoint x="-1579.366075660235" y="-1446.0248044533853" as="sourcePoint" />
            <mxPoint x="-1354.9099999999996" y="-1529.9999999999998" as="targetPoint" />
          </mxGeometry>
        </mxCell>
      </root>
    </mxGraphModel>
  </diagram>
</mxfile>
